<svg width="1920" height="1088" viewBox="0 0 1920 1088" fill="none" xmlns="http://www.w3.org/2000/svg">
<g filter="url(#filter0_d_68_9)">
<path d="M2.83203 -424.039V1512.04" stroke="#B1B1B0" stroke-width="0.5" stroke-miterlimit="10"/>
<path d="M68.9368 -424.039V1512.04" stroke="#B1B1B0" stroke-width="0.5" stroke-miterlimit="10"/>
<path d="M135.042 -424.039V1512.04" stroke="#B1B1B0" stroke-width="0.5" stroke-miterlimit="10"/>
<path d="M201.147 -424.039V1512.04" stroke="#B1B1B0" stroke-width="0.5" stroke-miterlimit="10"/>
<path d="M267.252 -424.039V1512.04" stroke="#B1B1B0" stroke-width="0.5" stroke-miterlimit="10"/>
<path d="M333.357 -424.039V1512.04" stroke="#B1B1B0" stroke-width="0.5" stroke-miterlimit="10"/>
<path d="M399.462 -424.039V1512.04" stroke="#B1B1B0" stroke-width="0.5" stroke-miterlimit="10"/>
<path d="M465.567 -424.039V1512.04" stroke="#B1B1B0" stroke-width="0.5" stroke-miterlimit="10"/>
<path d="M531.672 -424.039V1512.04" stroke="#B1B1B0" stroke-width="0.5" stroke-miterlimit="10"/>
<path d="M597.777 -424.039V1512.04" stroke="#B1B1B0" stroke-width="0.5" stroke-miterlimit="10"/>
<path d="M663.882 -424.039V1512.04" stroke="#B1B1B0" stroke-width="0.5" stroke-miterlimit="10"/>
<path d="M729.987 -424.039V1512.04" stroke="#B1B1B0" stroke-width="0.5" stroke-miterlimit="10"/>
<path d="M796.092 -424.039V1512.04" stroke="#B1B1B0" stroke-width="0.5" stroke-miterlimit="10"/>
<path d="M862.197 -424.039V1512.04" stroke="#B1B1B0" stroke-width="0.5" stroke-miterlimit="10"/>
<path d="M928.302 -424.039V1512.04" stroke="#B1B1B0" stroke-width="0.5" stroke-miterlimit="10"/>
<path d="M994.408 -424.039V1512.04" stroke="#B1B1B0" stroke-width="0.5" stroke-miterlimit="10"/>
<path d="M1060.51 -424.039V1512.04" stroke="#B1B1B0" stroke-width="0.5" stroke-miterlimit="10"/>
<path d="M1126.62 -424.039V1512.04" stroke="#B1B1B0" stroke-width="0.5" stroke-miterlimit="10"/>
<path d="M1192.72 -424.039V1512.04" stroke="#B1B1B0" stroke-width="0.5" stroke-miterlimit="10"/>
<path d="M1258.83 -424.039V1512.04" stroke="#B1B1B0" stroke-width="0.5" stroke-miterlimit="10"/>
<path d="M1324.93 -424.039V1512.04" stroke="#B1B1B0" stroke-width="0.5" stroke-miterlimit="10"/>
<path d="M1391.04 -424.039V1512.04" stroke="#B1B1B0" stroke-width="0.5" stroke-miterlimit="10"/>
<path d="M1457.14 -424.039V1512.04" stroke="#B1B1B0" stroke-width="0.5" stroke-miterlimit="10"/>
<path d="M1523.25 -424.039V1512.04" stroke="#B1B1B0" stroke-width="0.5" stroke-miterlimit="10"/>
<path d="M1589.35 -424.039V1512.04" stroke="#B1B1B0" stroke-width="0.5" stroke-miterlimit="10"/>
<path d="M1655.46 -424.039V1512.04" stroke="#B1B1B0" stroke-width="0.5" stroke-miterlimit="10"/>
<path d="M1721.56 -424.039V1512.04" stroke="#B1B1B0" stroke-width="0.5" stroke-miterlimit="10"/>
<path d="M1787.67 -424.039V1512.04" stroke="#B1B1B0" stroke-width="0.5" stroke-miterlimit="10"/>
<path d="M1853.77 -424.039V1512.04" stroke="#B1B1B0" stroke-width="0.5" stroke-miterlimit="10"/>
<path d="M1919.88 -424.039V1512.04" stroke="white" stroke-width="0.5" stroke-miterlimit="10"/>
<path d="M1989.48 45.1144H-66.7747" stroke="#B1B1B0" stroke-width="0.5" stroke-miterlimit="10"/>
<path d="M1989.48 111.632H-66.7747" stroke="#B1B1B0" stroke-width="0.5" stroke-miterlimit="10"/>
<path d="M1989.48 178.15H-66.7747" stroke="#B1B1B0" stroke-width="0.5" stroke-miterlimit="10"/>
<path d="M1989.48 244.669H-66.7747" stroke="#B1B1B0" stroke-width="0.5" stroke-miterlimit="10"/>
<path d="M1989.48 311.187H-66.7747" stroke="#B1B1B0" stroke-width="0.5" stroke-miterlimit="10"/>
<path d="M1989.48 377.705H-66.7747" stroke="#B1B1B0" stroke-width="0.5" stroke-miterlimit="10"/>
<path d="M1989.48 444.223H-66.7747" stroke="#B1B1B0" stroke-width="0.5" stroke-miterlimit="10"/>
<path d="M1989.48 510.741H-66.7747" stroke="#B1B1B0" stroke-width="0.5" stroke-miterlimit="10"/>
<path d="M1989.48 577.26H-66.7747" stroke="#B1B1B0" stroke-width="0.5" stroke-miterlimit="10"/>
<path d="M1989.48 643.777H-66.7747" stroke="#B1B1B0" stroke-width="0.5" stroke-miterlimit="10"/>
<path d="M1989.48 710.297H-66.7747" stroke="#B1B1B0" stroke-width="0.5" stroke-miterlimit="10"/>
<path d="M1989.48 776.813H-66.7747" stroke="#B1B1B0" stroke-width="0.5" stroke-miterlimit="10"/>
<path d="M1989.48 843.332H-66.7747" stroke="#B1B1B0" stroke-width="0.5" stroke-miterlimit="10"/>
<path d="M1989.48 909.849H-66.7747" stroke="#B1B1B0" stroke-width="0.5" stroke-miterlimit="10"/>
<path d="M1989.48 976.369H-66.7747" stroke="#B1B1B0" stroke-width="0.5" stroke-miterlimit="10"/>
<path d="M1989.48 1042.89H-66.7747" stroke="#B1B1B0" stroke-width="0.5" stroke-miterlimit="10"/>
</g>
<defs>
<filter id="filter0_d_68_9" x="-70.7747" y="-424.039" width="2064.26" height="1944.08" filterUnits="userSpaceOnUse" color-interpolation-filters="sRGB">
<feFlood flood-opacity="0" result="BackgroundImageFix"/>
<feColorMatrix in="SourceAlpha" type="matrix" values="0 0 0 0 0 0 0 0 0 0 0 0 0 0 0 0 0 0 127 0" result="hardAlpha"/>
<feOffset dy="4"/>
<feGaussianBlur stdDeviation="2"/>
<feComposite in2="hardAlpha" operator="out"/>
<feColorMatrix type="matrix" values="0 0 0 0 0 0 0 0 0 0 0 0 0 0 0 0 0 0 0.25 0"/>
<feBlend mode="normal" in2="BackgroundImageFix" result="effect1_dropShadow_68_9"/>
<feBlend mode="normal" in="SourceGraphic" in2="effect1_dropShadow_68_9" result="shape"/>
</filter>
</defs>
</svg>
