<svg width="195" height="589" viewBox="0 0 195 589" fill="none" xmlns="http://www.w3.org/2000/svg">
<path d="M173.762 57.2541L151.133 50.8087V35.0901L173.762 41.5345V57.2541Z" fill="#2C2F3D"/>
<path d="M164.453 54.6036L173.762 41.5345V57.2541L164.453 54.6036Z" fill="#3E4359"/>
<path d="M173.762 87.162L151.133 80.7156V64.997L173.762 71.4414V87.162Z" fill="#2C2F3D"/>
<path d="M164.453 84.5115L173.762 71.4414V87.162L164.453 84.5115Z" fill="#3E4359"/>
<path d="M173.762 117.069L151.133 110.626V94.905L173.762 101.349V117.069Z" fill="#2C2F3D"/>
<path d="M164.453 114.418L173.762 101.349V117.069L164.453 114.418Z" fill="#3E4359"/>
<path d="M173.762 146.977L151.133 140.531V124.812L173.762 131.256V146.977Z" fill="#2C2F3D"/>
<path d="M164.453 144.326L173.762 131.256V146.977L164.453 144.326Z" fill="#3E4359"/>
<path d="M173.762 176.884L151.133 170.44V154.72L173.762 161.164V176.884Z" fill="#2C2F3D"/>
<path d="M164.453 174.233L173.762 161.164V176.884L164.453 174.233Z" fill="#3E4359"/>
<path d="M173.762 206.792L151.133 200.347V184.628L173.762 191.071V206.792Z" fill="#2C2F3D"/>
<path d="M164.453 204.14L173.762 191.071V206.792L164.453 204.14Z" fill="#3E4359"/>
<path d="M173.762 236.7L151.133 230.255V214.535L173.762 220.979V236.7Z" fill="#2C2F3D"/>
<path d="M164.453 234.048L173.762 220.979V236.7L164.453 234.048Z" fill="#3E4359"/>
<path d="M173.762 266.608L151.133 260.161V244.441L173.762 250.888V266.608Z" fill="#2C2F3D"/>
<path d="M164.453 263.957L173.762 250.888V266.607L164.453 263.957Z" fill="#3E4359"/>
<path d="M173.762 296.514L151.133 290.07V274.349L173.762 280.795V296.514Z" fill="#2C2F3D"/>
<path d="M164.453 293.863L173.762 280.795V296.514L164.453 293.863Z" fill="#3E4359"/>
<path d="M173.762 326.422L151.133 319.977V304.258L173.762 310.702V326.422Z" fill="#2C2F3D"/>
<path d="M164.453 323.772L173.762 310.702V326.422L164.453 323.772Z" fill="#3E4359"/>
<path d="M173.762 356.33L151.133 349.885V334.165L173.762 340.61V356.33Z" fill="#2C2F3D"/>
<path d="M164.453 353.68L173.762 340.61V356.33L164.453 353.68Z" fill="#3E4359"/>
<path d="M173.762 386.237L151.133 379.791V364.073L173.762 370.518V386.237Z" fill="#2C2F3D"/>
<path d="M164.453 383.588L173.762 370.518V386.237L164.453 383.588Z" fill="#3E4359"/>
<path d="M173.762 416.145L151.133 409.701V393.98L173.762 400.424V416.145Z" fill="#2C2F3D"/>
<path d="M164.453 413.495L173.762 400.424V416.145L164.453 413.495Z" fill="#3E4359"/>
<path d="M173.762 446.052L151.133 439.609V423.889L173.762 430.332V446.052Z" fill="#2C2F3D"/>
<path d="M164.453 443.401L173.762 430.332V446.052L164.453 443.401Z" fill="#3E4359"/>
<path d="M173.762 475.96L151.133 469.515V453.795L173.762 460.239V475.96Z" fill="#2C2F3D"/>
<path d="M164.453 473.309L173.762 460.239V475.96L164.453 473.309Z" fill="#3E4359"/>
<path d="M173.762 505.867L151.133 499.422V483.703L173.762 490.148V505.867Z" fill="#2C2F3D"/>
<path d="M164.453 503.217L173.762 490.148V505.867L164.453 503.217Z" fill="#3E4359"/>
<path d="M173.762 535.775L151.133 529.33V513.611L173.762 520.056V535.775Z" fill="#2C2F3D"/>
<path d="M164.453 533.124L173.762 520.056V535.775L164.453 533.124Z" fill="#3E4359"/>
<path d="M66.0752 5.51465L194.936 43.2713L180.141 63.6269L66.0752 31.2761V5.51465Z" fill="#3E4359"/>
<path d="M68.9026 40.1806L13.6182 86.8074V62.6719L68.9026 14.0383V40.1806Z" fill="#2C2F3D"/>
<path d="M65.9922 31.2761L186.948 65.5572V40.8243L65.9922 5.13287V31.2761Z" fill="#727894"/>
<path d="M66.0752 5.5147L194.936 43.2713V37.9109L66.0752 0.158325V5.5147Z" fill="#9FA5BC"/>
<path d="M66.0752 5.5147L0.0202637 59.5934V54.2349L66.0752 0.158325V5.5147Z" fill="#727894"/>
<path d="M66.0752 5.51465L0.0202637 59.5933L24.997 64.6233L66.0752 31.2046V5.51465Z" fill="#3E4359"/>
<path d="M103.048 36.9115L80.4219 30.4671V14.7475L103.048 21.1929V36.9115Z" fill="#2C2F3D"/>
<path d="M93.7422 34.2611L103.048 21.1929V36.9115L93.7422 34.2611Z" fill="#3E4359"/>
<path d="M138.623 47.2143L115.993 40.7668V25.0472L138.623 31.4947V47.2143Z" fill="#2C2F3D"/>
<path d="M129.314 44.5618L138.623 31.4947V47.2143L129.314 44.5618Z" fill="#3E4359"/>
<path d="M66.0752 35.4236L194.936 73.1792L180.141 93.5348L66.0752 61.183V35.4236Z" fill="#3E4359"/>
<path d="M68.9026 70.0875L13.6182 116.715V92.5809L68.9026 43.9462V70.0875Z" fill="#2C2F3D"/>
<path d="M65.9922 61.183L186.948 95.465V70.7332L65.9922 35.0408V61.183Z" fill="#727894"/>
<path d="M66.0752 35.4236L194.936 73.1792V67.8168L66.0752 30.0652V35.4236Z" fill="#9FA5BC"/>
<path d="M66.0752 35.4236L0.0202637 89.5022V84.1408L66.0752 30.0652V35.4236Z" fill="#727894"/>
<path d="M66.0752 35.4236L0.0202637 89.5022L24.997 94.5312L66.0752 61.1125V35.4236Z" fill="#3E4359"/>
<path d="M103.048 66.8204L80.4219 60.373V44.6555L103.048 51.1009V66.8204Z" fill="#2C2F3D"/>
<path d="M93.7422 64.169L103.048 51.1009V66.8204L93.7422 64.169Z" fill="#3E4359"/>
<path d="M138.623 77.1222L115.993 70.6758V54.9562L138.623 61.4026V77.1222Z" fill="#2C2F3D"/>
<path d="M129.314 74.4697L138.623 61.4026V77.1222L129.314 74.4697Z" fill="#3E4359"/>
<path d="M66.0752 65.3305L194.936 103.086L180.141 123.444L66.0752 91.0909V65.3305Z" fill="#3E4359"/>
<path d="M68.9026 99.9954L13.6182 146.622V122.488L68.9026 73.8531V99.9954Z" fill="#2C2F3D"/>
<path d="M65.9922 91.0909L186.948 125.372V100.639L65.9922 64.9487V91.0909Z" fill="#727894"/>
<path d="M66.0752 65.3305L194.936 103.086V97.7257L66.0752 59.9741V65.3305Z" fill="#9FA5BC"/>
<path d="M66.0752 65.3305L0.0202637 119.409V114.05L66.0752 59.9741V65.3305Z" fill="#727894"/>
<path d="M66.0752 65.3305L0.0202637 119.409L24.997 124.438L66.0752 91.0204V65.3305Z" fill="#3E4359"/>
<path d="M103.048 96.7273L80.4219 90.2819V74.5634L103.048 81.0067V96.7273Z" fill="#2C2F3D"/>
<path d="M93.7422 94.0779L103.048 81.0068V96.7273L93.7422 94.0779Z" fill="#3E4359"/>
<path d="M138.623 107.029L115.993 100.583V84.8621L138.623 91.3095V107.029Z" fill="#2C2F3D"/>
<path d="M129.314 104.377L138.623 91.3095V107.029L129.314 104.377Z" fill="#3E4359"/>
<path d="M66.0752 95.2384L194.936 132.994L180.141 153.351L66.0752 120.999V95.2384Z" fill="#3E4359"/>
<path d="M68.9026 129.903L13.6182 176.53V152.396L68.9026 103.761V129.903Z" fill="#2C2F3D"/>
<path d="M65.9922 120.999L186.948 155.281V130.548L65.9922 94.8556V120.999Z" fill="#727894"/>
<path d="M66.0752 95.2384L194.936 132.994V127.633L66.0752 89.881V95.2384Z" fill="#9FA5BC"/>
<path d="M66.0752 95.2384L0.0202637 149.317V143.956L66.0752 89.881V95.2384Z" fill="#727894"/>
<path d="M66.0752 95.2384L0.0202637 149.317L24.997 154.346L66.0752 120.927V95.2384Z" fill="#3E4359"/>
<path d="M103.048 126.635L80.4219 120.19V104.47L103.048 110.916V126.635Z" fill="#2C2F3D"/>
<path d="M93.7422 123.984L103.048 110.916V126.635L93.7422 123.984Z" fill="#3E4359"/>
<path d="M138.623 136.937L115.993 130.491V114.771L138.623 121.217V136.937Z" fill="#2C2F3D"/>
<path d="M129.314 134.284L138.623 121.217V136.937L129.314 134.284Z" fill="#3E4359"/>
<path d="M66.0752 125.145L194.936 162.901L180.141 183.259L66.0752 150.906V125.145Z" fill="#3E4359"/>
<path d="M68.9026 159.811L13.6182 206.437V182.303L68.9026 133.669V159.811Z" fill="#2C2F3D"/>
<path d="M65.9922 150.906L186.948 185.187V160.454L65.9922 124.763V150.906Z" fill="#727894"/>
<path d="M66.0752 125.145L194.936 162.901V157.542L66.0752 119.789V125.145Z" fill="#9FA5BC"/>
<path d="M66.0752 125.145L0.0202637 179.225V173.866L66.0752 119.789V125.145Z" fill="#727894"/>
<path d="M66.0752 125.145L0.0202637 179.225L24.997 184.253L66.0752 150.835V125.145Z" fill="#3E4359"/>
<path d="M103.048 156.542L80.4219 150.097V134.378L103.048 140.823V156.542Z" fill="#2C2F3D"/>
<path d="M93.7422 153.893L103.048 140.823V156.542L93.7422 153.893Z" fill="#3E4359"/>
<path d="M138.623 166.844L115.993 160.398V144.678L138.623 151.124V166.844Z" fill="#2C2F3D"/>
<path d="M129.314 164.191L138.623 151.124V166.844L129.314 164.191Z" fill="#3E4359"/>
<path d="M66.0752 155.053L194.936 192.81L180.141 213.166L66.0752 180.814V155.053Z" fill="#3E4359"/>
<path d="M68.9026 189.718L13.6182 236.345V212.211L68.9026 163.576V189.718Z" fill="#2C2F3D"/>
<path d="M65.9922 180.814L186.948 215.096V190.363L65.9922 154.67V180.814Z" fill="#727894"/>
<path d="M66.0752 155.053L194.936 192.81V187.447L66.0752 149.697V155.053Z" fill="#9FA5BC"/>
<path d="M66.0752 155.053L0.0202637 209.132V203.772L66.0752 149.697V155.053Z" fill="#727894"/>
<path d="M66.0752 155.053L0.0202637 209.132L24.997 214.161L66.0752 180.742V155.053Z" fill="#3E4359"/>
<path d="M103.048 186.45L80.4219 180.005V164.285L103.048 170.73V186.45Z" fill="#2C2F3D"/>
<path d="M93.7422 183.799L103.048 170.731V186.45L93.7422 183.799Z" fill="#3E4359"/>
<path d="M138.623 196.753L115.993 190.305V174.586L138.623 181.033V196.753Z" fill="#2C2F3D"/>
<path d="M129.314 194.099L138.623 181.033V196.753L129.314 194.099Z" fill="#3E4359"/>
<path d="M66.0752 184.96L194.936 222.716L180.141 243.073L66.0752 210.721V184.96Z" fill="#3E4359"/>
<path d="M68.9026 219.626L13.6182 266.253V242.117L68.9026 193.484V219.626Z" fill="#2C2F3D"/>
<path d="M65.9922 210.721L186.948 245.003V220.27L65.9922 184.578V210.721Z" fill="#727894"/>
<path d="M66.0752 184.96L194.936 222.716V217.356L66.0752 179.604V184.96Z" fill="#9FA5BC"/>
<path d="M66.0752 184.96L0.0202637 239.039V233.68L66.0752 179.604V184.96Z" fill="#727894"/>
<path d="M66.0752 184.96L0.0202637 239.039L24.997 244.068L66.0752 210.651V184.96Z" fill="#3E4359"/>
<path d="M103.048 216.357L80.4219 209.912V194.193L103.048 200.637V216.357Z" fill="#2C2F3D"/>
<path d="M93.7422 213.707L103.048 200.637V216.357L93.7422 213.707Z" fill="#3E4359"/>
<path d="M138.623 226.66L115.993 220.212V204.493L138.623 210.94V226.66Z" fill="#2C2F3D"/>
<path d="M129.314 224.007L138.623 210.94V226.66L129.314 224.007Z" fill="#3E4359"/>
<path d="M66.0752 214.868L194.936 252.624L180.141 272.981L66.0752 240.628V214.868Z" fill="#3E4359"/>
<path d="M68.9026 249.534L13.6182 296.16V272.025L68.9026 223.392V249.534Z" fill="#2C2F3D"/>
<path d="M65.9922 240.628L186.948 274.91V250.177L65.9922 214.485V240.628Z" fill="#727894"/>
<path d="M66.0752 214.868L194.936 252.624V247.263L66.0752 209.512V214.868Z" fill="#9FA5BC"/>
<path d="M66.0752 214.868L0.0202637 268.948V263.587L66.0752 209.512V214.868Z" fill="#727894"/>
<path d="M66.0752 214.868L0.0202637 268.948L24.997 273.977L66.0752 240.557V214.868Z" fill="#3E4359"/>
<path d="M103.048 246.266L80.4219 239.82V224.1L103.048 230.546V246.266Z" fill="#2C2F3D"/>
<path d="M93.7422 243.614L103.048 230.546V246.266L93.7422 243.614Z" fill="#3E4359"/>
<path d="M138.623 256.568L115.993 250.121V234.401L138.623 240.848V256.568Z" fill="#2C2F3D"/>
<path d="M129.314 253.915L138.623 240.848V256.568L129.314 253.915Z" fill="#3E4359"/>
<path d="M66.0752 244.776L194.936 282.532L180.141 302.887L66.0752 270.536V244.776Z" fill="#3E4359"/>
<path d="M68.9026 279.442L13.6182 326.068V301.933L68.9026 253.3V279.442Z" fill="#2C2F3D"/>
<path d="M65.9922 270.536L186.948 304.817V280.084L65.9922 244.394V270.536Z" fill="#727894"/>
<path d="M66.0752 244.776L194.936 282.531V277.172L66.0752 239.419V244.776Z" fill="#9FA5BC"/>
<path d="M66.0752 244.776L0.0202637 298.855V293.495L66.0752 239.419V244.776Z" fill="#727894"/>
<path d="M66.0752 244.776L0.0202637 298.855L24.997 303.884L66.0752 270.465V244.776Z" fill="#3E4359"/>
<path d="M103.048 276.173L80.4219 269.726V254.008L103.048 260.453V276.173Z" fill="#2C2F3D"/>
<path d="M93.7422 273.522L103.048 260.453V276.173L93.7422 273.522Z" fill="#3E4359"/>
<path d="M138.623 286.476L115.993 280.028V264.308L138.623 270.756V286.476Z" fill="#2C2F3D"/>
<path d="M129.314 283.822L138.623 270.756V286.476L129.314 283.822Z" fill="#3E4359"/>
<path d="M66.0752 274.683L194.936 312.44L180.141 332.796L66.0752 300.443V274.683Z" fill="#3E4359"/>
<path d="M68.9026 309.349L13.6182 355.976V331.84L68.9026 283.206V309.349Z" fill="#2C2F3D"/>
<path d="M65.9922 300.443L186.948 334.726V309.993L65.9922 274.301V300.443Z" fill="#727894"/>
<path d="M66.0752 274.683L194.936 312.44V307.078L66.0752 269.326V274.683Z" fill="#9FA5BC"/>
<path d="M66.0752 274.683L0.0202637 328.763V323.402L66.0752 269.326V274.683Z" fill="#727894"/>
<path d="M66.0752 274.683L0.0202637 328.763L24.997 333.791L66.0752 300.372V274.683Z" fill="#3E4359"/>
<path d="M103.048 306.08L80.4219 299.634V283.916L103.048 290.361V306.08Z" fill="#2C2F3D"/>
<path d="M93.7422 303.429L103.048 290.361V306.08L93.7422 303.429Z" fill="#3E4359"/>
<path d="M138.623 316.384L115.993 309.934V294.216L138.623 300.663V316.384Z" fill="#2C2F3D"/>
<path d="M129.314 313.731L138.623 300.663V316.384L129.314 313.731Z" fill="#3E4359"/>
<path d="M66.0752 304.591L194.936 342.346L180.141 362.703L66.0752 330.35V304.591Z" fill="#3E4359"/>
<path d="M68.9026 339.256L13.6182 385.884V361.749L68.9026 313.114V339.256Z" fill="#2C2F3D"/>
<path d="M65.9922 330.35L186.948 364.633V339.9L65.9922 304.208V330.35Z" fill="#727894"/>
<path d="M66.0752 304.591L194.936 342.346V336.986L66.0752 299.233V304.591Z" fill="#9FA5BC"/>
<path d="M66.0752 304.591L0.0202637 358.669V353.311L66.0752 299.233V304.591Z" fill="#727894"/>
<path d="M66.0752 304.591L0.0202637 358.669L24.997 363.699L66.0752 330.282V304.591Z" fill="#3E4359"/>
<path d="M103.048 335.989L80.4219 329.541V313.824L103.048 320.268V335.989Z" fill="#2C2F3D"/>
<path d="M93.7422 333.338L103.048 320.268V335.989L93.7422 333.338Z" fill="#3E4359"/>
<path d="M138.623 346.29L115.993 339.844V324.123L138.623 330.571V346.29Z" fill="#2C2F3D"/>
<path d="M129.314 343.638L138.623 330.571V346.29L129.314 343.638Z" fill="#3E4359"/>
<path d="M66.0752 334.499L194.936 372.255L180.141 392.611L66.0752 360.259V334.499Z" fill="#3E4359"/>
<path d="M68.9026 369.164L13.6182 415.791V391.656L68.9026 343.021V369.164Z" fill="#2C2F3D"/>
<path d="M65.9922 360.259L186.948 394.541V369.808L65.9922 334.117V360.259Z" fill="#727894"/>
<path d="M66.0752 334.499L194.936 372.255V366.893L66.0752 329.141V334.499Z" fill="#9FA5BC"/>
<path d="M66.0752 334.499L0.0202637 388.578V383.217L66.0752 329.141V334.499Z" fill="#727894"/>
<path d="M66.0752 334.499L0.0202637 388.578L24.997 393.607L66.0752 360.189V334.499Z" fill="#3E4359"/>
<path d="M103.048 365.897L80.4219 359.45V343.73L103.048 350.177V365.897Z" fill="#2C2F3D"/>
<path d="M93.7422 363.245L103.048 350.177V365.897L93.7422 363.245Z" fill="#3E4359"/>
<path d="M138.623 376.197L115.993 369.752V354.032L138.623 360.478V376.197Z" fill="#2C2F3D"/>
<path d="M129.314 373.545L138.623 360.478V376.197L129.314 373.545Z" fill="#3E4359"/>
<path d="M66.0752 364.408L194.936 402.162L180.141 422.519L66.0752 390.167V364.408Z" fill="#3E4359"/>
<path d="M68.9026 399.072L13.6182 445.697V421.565L68.9026 372.93V399.072Z" fill="#2C2F3D"/>
<path d="M65.9922 390.167L186.948 424.447V399.715L65.9922 364.025V390.167Z" fill="#727894"/>
<path d="M66.0752 364.408L194.936 402.162V396.802L66.0752 359.05V364.408Z" fill="#9FA5BC"/>
<path d="M66.0752 364.408L0.0202637 418.485V413.125L66.0752 359.05V364.408Z" fill="#727894"/>
<path d="M66.0752 364.408L0.0202637 418.485L24.997 423.513L66.0752 390.095V364.408Z" fill="#3E4359"/>
<path d="M103.048 395.803L80.4219 389.356V373.639L103.048 380.083V395.803Z" fill="#2C2F3D"/>
<path d="M93.7422 393.153L103.048 380.083V395.803L93.7422 393.153Z" fill="#3E4359"/>
<path d="M138.623 406.105L115.993 399.659V383.938L138.623 390.386V406.105Z" fill="#2C2F3D"/>
<path d="M129.314 403.453L138.623 390.386V406.105L129.314 403.453Z" fill="#3E4359"/>
<path d="M66.0752 394.313L194.936 432.07L180.141 452.427L66.0752 420.074V394.313Z" fill="#3E4359"/>
<path d="M68.9026 428.979L13.6182 475.606V451.471L68.9026 402.837V428.979Z" fill="#2C2F3D"/>
<path d="M65.9922 420.074L186.948 454.356V429.623L65.9922 393.932V420.074Z" fill="#727894"/>
<path d="M66.0752 394.313L194.936 432.07V426.709L66.0752 388.957V394.313Z" fill="#9FA5BC"/>
<path d="M66.0752 394.313L0.0202637 448.393V443.032L66.0752 388.957V394.313Z" fill="#727894"/>
<path d="M66.0752 394.313L0.0202637 448.393L24.997 453.422L66.0752 420.003V394.313Z" fill="#3E4359"/>
<path d="M103.048 425.71L80.4219 419.265V403.546L103.048 409.991V425.71Z" fill="#2C2F3D"/>
<path d="M93.7422 423.06L103.048 409.991V425.71L93.7422 423.06Z" fill="#3E4359"/>
<path d="M138.623 436.013L115.993 429.566V413.846L138.623 420.294V436.013Z" fill="#2C2F3D"/>
<path d="M129.314 433.361L138.623 420.294V436.013L129.314 433.361Z" fill="#3E4359"/>
<path d="M66.0752 424.221L194.936 461.977L180.141 482.335L66.0752 449.981V424.221Z" fill="#3E4359"/>
<path d="M68.9026 458.886L13.6182 505.513V481.379L68.9026 432.744V458.886Z" fill="#2C2F3D"/>
<path d="M65.9922 449.981L186.948 484.264V459.531L65.9922 423.839V449.981Z" fill="#727894"/>
<path d="M66.0752 424.221L194.936 461.977V456.617L66.0752 418.864V424.221Z" fill="#9FA5BC"/>
<path d="M66.0752 424.221L0.0202637 478.3V472.942L66.0752 418.864V424.221Z" fill="#727894"/>
<path d="M66.0752 424.221L0.0202637 478.3L24.997 483.329L66.0752 449.911V424.221Z" fill="#3E4359"/>
<path d="M103.048 455.618L80.4219 449.173V433.454L103.048 439.899V455.618Z" fill="#2C2F3D"/>
<path d="M93.7422 452.968L103.048 439.899V455.618L93.7422 452.968Z" fill="#3E4359"/>
<path d="M138.623 465.92L115.993 459.474V443.754L138.623 450.2V465.92Z" fill="#2C2F3D"/>
<path d="M129.314 463.267L138.623 450.2V465.92L129.314 463.267Z" fill="#3E4359"/>
<path d="M66.0752 454.128L194.936 491.885L180.141 512.242L66.0752 479.889V454.128Z" fill="#3E4359"/>
<path d="M68.9026 488.794L13.6182 535.421V511.287L68.9026 462.652V488.794Z" fill="#2C2F3D"/>
<path d="M65.9922 479.889L186.948 514.171V489.438L65.9922 453.746V479.889Z" fill="#727894"/>
<path d="M66.0752 454.128L194.936 491.885V486.523L66.0752 448.773V454.128Z" fill="#9FA5BC"/>
<path d="M66.0752 454.128L0.0202637 508.208V502.848L66.0752 448.773V454.128Z" fill="#727894"/>
<path d="M66.0752 454.128L0.0202637 508.208L24.997 513.237L66.0752 479.818V454.128Z" fill="#3E4359"/>
<path d="M103.048 485.526L80.4219 479.081V463.36L103.048 469.806V485.526Z" fill="#2C2F3D"/>
<path d="M93.7422 482.876L103.048 469.807V485.526L93.7422 482.876Z" fill="#3E4359"/>
<path d="M138.623 495.829L115.993 489.382V473.662L138.623 480.108V495.829Z" fill="#2C2F3D"/>
<path d="M129.314 493.175L138.623 480.108V495.829L129.314 493.175Z" fill="#3E4359"/>
<path d="M66.0752 484.037L194.936 521.793L180.141 542.149L66.0752 509.797V484.037Z" fill="#3E4359"/>
<path d="M68.9026 518.703L13.6182 565.327V541.195L68.9026 492.56V518.703Z" fill="#2C2F3D"/>
<path d="M65.9922 509.797L186.948 544.078V519.345L65.9922 483.654V509.797Z" fill="#727894"/>
<path d="M66.0752 484.037L194.936 521.793V516.432L66.0752 478.68V484.037Z" fill="#9FA5BC"/>
<path d="M66.0752 484.037L0.0202637 538.116V532.755L66.0752 478.68V484.037Z" fill="#727894"/>
<path d="M66.0752 484.037L0.0202637 538.116L24.997 543.143L66.0752 509.725V484.037Z" fill="#3E4359"/>
<path d="M103.048 515.433L80.4219 508.988V493.269L103.048 499.714V515.433Z" fill="#2C2F3D"/>
<path d="M93.7422 512.783L103.048 499.714V515.433L93.7422 512.783Z" fill="#3E4359"/>
<path d="M138.623 525.736L115.993 519.288V503.569L138.623 510.016V525.736Z" fill="#2C2F3D"/>
<path d="M129.314 523.083L138.623 510.016V525.736L129.314 523.083Z" fill="#3E4359"/>
<path d="M66.0752 588.454H0.0202637V562.336L66.0752 508.26V588.454Z" fill="#1F222B"/>
<path d="M66.0752 588.454H194.936V546.013L66.0752 508.26V588.454Z" fill="#2C2F3D"/>
</svg>
