<svg width="264" height="289" viewBox="0 0 264 289" fill="none" xmlns="http://www.w3.org/2000/svg">
<path d="M132.261 287.968L8.42285 287.508L9.26384 57.655L133.31 0.647827L132.261 287.968Z" fill="#3E4359"/>
<path d="M132.261 287.968L256.099 288.423L256.938 58.5707L133.31 0.647827L132.261 287.968Z" fill="#9FA5BC"/>
<path d="M132.261 287.968L0.725098 287.478L0.778137 272.629L132.347 264.506L132.261 287.968Z" fill="#2C2F3D"/>
<path d="M132.261 287.968L263.798 288.454L263.846 275.324L132.347 264.506L132.261 287.968Z" fill="#3E4359"/>
<path opacity="0.6" d="M126.574 76.7928L14.1426 115.765L14.2597 83.7378L126.72 37.0193L126.574 76.7928Z" fill="#2C2F3D"/>
<path d="M44.935 100.622L19.0833 110.333L19.1744 85.264L45.0291 74.8333L44.935 100.622Z" fill="#2C2F3D"/>
<path d="M80.2972 87.3353L52.4683 97.7891L52.5634 71.7919L80.3974 60.5674L80.2972 87.3353Z" fill="#2C2F3D"/>
<path d="M118.46 72.9999L88.4216 84.2859L88.5197 57.2904L118.562 45.1692L118.46 72.9999Z" fill="#2C2F3D"/>
<path opacity="0.6" d="M126.292 153.627L13.9131 178.177L14.0312 146.152L126.438 113.85L126.292 153.627Z" fill="#2C2F3D"/>
<path d="M44.6915 166.982L18.8518 173.38L18.9429 148.308L44.7866 141.196L44.6915 166.982Z" fill="#2C2F3D"/>
<path d="M80.0381 158.229L52.2222 165.117L52.3183 139.12L80.1352 131.461L80.0381 158.229Z" fill="#2C2F3D"/>
<path d="M118.184 148.789L88.1584 156.22L88.2565 129.225L118.286 120.96L118.184 148.789Z" fill="#2C2F3D"/>
<path opacity="0.6" d="M126.011 230.563L13.6787 242.311L13.7969 210.286L126.156 190.791L126.011 230.563Z" fill="#2C2F3D"/>
<path d="M44.444 234.622L18.6143 238.075L18.7074 213.004L44.5381 208.833L44.444 234.622Z" fill="#2C2F3D"/>
<path d="M79.7766 229.895L51.9727 233.613L52.0688 207.617L79.8747 203.129L79.7766 229.895Z" fill="#2C2F3D"/>
<path d="M117.908 224.8L87.8923 228.812L87.9914 201.818L118.007 196.97L117.908 224.8Z" fill="#2C2F3D"/>
<path d="M141.161 76.847L253.305 116.648L253.422 84.6242L141.307 37.0746L141.161 76.847Z" fill="#727894"/>
<path d="M222.623 101.28L248.405 111.182L248.496 86.1112L222.717 75.4891L222.623 101.28Z" fill="#3E4359"/>
<path d="M187.359 87.732L215.11 98.3925L215.206 72.3933L187.456 60.9633L187.359 87.732Z" fill="#3E4359"/>
<path d="M149.301 73.1136L179.257 84.6202L179.355 57.6238L149.404 45.283L149.301 73.1136Z" fill="#3E4359"/>
<path d="M140.88 153.68L253.076 179.062L253.193 147.036L141.023 113.905L140.88 153.68Z" fill="#727894"/>
<path d="M222.381 167.64L248.174 174.227L248.266 149.158L222.475 141.852L222.381 167.64Z" fill="#3E4359"/>
<path d="M187.099 158.625L214.864 165.718L214.959 139.719L187.196 131.858L187.099 158.625Z" fill="#3E4359"/>
<path d="M149.025 148.903L178.994 156.557L179.093 129.562L149.127 121.074L149.025 148.903Z" fill="#3E4359"/>
<path d="M140.599 230.619L252.84 243.199L252.959 211.172L140.743 190.844L140.599 230.619Z" fill="#727894"/>
<path d="M222.134 235.28L247.936 238.926L248.027 213.856L222.228 209.492L222.134 235.28Z" fill="#3E4359"/>
<path d="M186.836 230.293L214.612 234.217L214.708 208.216L186.936 203.523L186.836 230.293Z" fill="#3E4359"/>
<path d="M148.744 224.915L178.728 229.147L178.826 202.151L148.848 197.085L148.744 224.915Z" fill="#3E4359"/>
<path d="M132.689 170.917L256.435 196.19" stroke="#3E4359" stroke-width="1.01207" stroke-miterlimit="10"/>
<path d="M132.983 90.5545L256.668 132.503" stroke="#3E4359" stroke-width="1.01207" stroke-miterlimit="10"/>
<path d="M132.416 245.723L8.53442 256.835" stroke="#727894" stroke-width="1.01207" stroke-miterlimit="10"/>
<path d="M132.416 245.723L255.284 258.874" stroke="#3E4359" stroke-width="1.01207" stroke-miterlimit="10"/>
<path d="M132.689 170.917L8.76416 194.164" stroke="#727894" stroke-width="1.01207" stroke-miterlimit="10"/>
<path d="M132.983 90.5545L8.99146 131.996" stroke="#727894" stroke-width="1.01207" stroke-miterlimit="10"/>
</svg>
