<svg width="140" height="496" viewBox="0 0 140 496" fill="none" xmlns="http://www.w3.org/2000/svg">
<path d="M63.7374 136.778H25.0591V12.7477L63.7374 0.808899V136.778Z" fill="#3E4359"/>
<path d="M63.7373 136.778L114.84 136.776V14.4804L63.7373 0.808899V136.778Z" fill="#5C647A"/>
<path d="M75.3809 129.95H105.562V20.96L75.3809 13.8719V129.95Z" fill="#3E4359"/>
<path d="M55.1049 129.95H49.0498V16.9566L55.1049 14.8914V129.95Z" fill="#2C2F3D"/>
<path d="M41.4006 129.95H35.665V20.9228L41.4006 18.8596V129.95Z" fill="#2C2F3D"/>
<path d="M60.3307 43.7043L0.424805 61.1818V52.1171L60.3307 33.6282V43.7043Z" fill="#525A6D"/>
<path d="M60.3306 43.7043L139.473 63.8615V54.7999L60.3306 33.6282V43.7043Z" fill="#727894"/>
<path d="M60.3307 51.7243L16.9208 64.6724L0.424805 61.1818L60.3307 43.7043V51.7243Z" fill="#30343F"/>
<path d="M60.3306 51.7243L123.968 68.3172L139.473 63.8615L60.3306 43.7043V51.7243Z" fill="#3C434F"/>
<path d="M55.3919 41.6804L5.47852 56.4339V54.2548L55.3919 38.6954V41.6804Z" fill="#C8D3E0"/>
<path d="M65.3042 41.36L134.743 59.3725V57.1904L65.3042 38.7791V41.36Z" fill="#C8D3E0"/>
<path d="M60.3307 58.1989L0.424805 75.6774V66.6128L60.3307 48.1228V58.1989Z" fill="#525A6D"/>
<path d="M60.3306 58.1989L139.473 78.3571V69.2945L60.3306 48.1228V58.1989Z" fill="#727894"/>
<path d="M60.3307 66.2199L16.9208 79.1671L0.424805 75.6774L60.3307 58.1989V66.2199Z" fill="#30343F"/>
<path d="M60.3306 66.2199L123.968 82.8129L139.473 78.3571L60.3306 58.1989V66.2199Z" fill="#3C434F"/>
<path d="M55.3919 56.175L5.47852 70.9294V68.7514L55.3919 53.19V56.175Z" fill="#C8D3E0"/>
<path d="M65.3042 55.8536L134.743 73.8671V71.687L65.3042 53.2736V55.8536Z" fill="#C8D3E0"/>
<path d="M60.3307 72.6944L0.424805 90.171V81.1063L60.3307 62.6194V72.6944Z" fill="#525A6D"/>
<path d="M60.3306 72.6944L139.473 92.8527V83.788L60.3306 62.6194V72.6944Z" fill="#727894"/>
<path d="M60.3307 80.7154L16.9208 93.6626L0.424805 90.171L60.3307 72.6945V80.7154Z" fill="#30343F"/>
<path d="M60.3306 80.7154L123.968 97.3074L139.473 92.8527L60.3306 72.6945V80.7154Z" fill="#3C434F"/>
<path d="M55.3919 70.6705L5.47852 85.424V83.246L55.3919 67.6856V70.6705Z" fill="#C8D3E0"/>
<path d="M65.3042 70.3492L134.743 88.3627V86.1796L65.3042 67.7693V70.3492Z" fill="#C8D3E0"/>
<path d="M60.3307 87.189L0.424805 104.667V95.6029L60.3307 77.1129V87.189Z" fill="#525A6D"/>
<path d="M60.3306 87.189L139.473 107.346V98.2846L60.3306 77.1129V87.189Z" fill="#727894"/>
<path d="M60.3307 95.209L16.9208 108.157L0.424805 104.667L60.3307 87.189V95.209Z" fill="#30343F"/>
<path d="M60.3306 95.209L123.968 111.802L139.473 107.346L60.3306 87.189V95.209Z" fill="#3C434F"/>
<path d="M55.3919 85.1641L5.47852 99.9196V97.7406L55.3919 82.1812V85.1641Z" fill="#C8D3E0"/>
<path d="M65.3042 84.8448L134.743 102.857V100.676L65.3042 82.2639V84.8448Z" fill="#C8D3E0"/>
<path d="M60.3307 101.686L0.424805 119.162V110.097L60.3307 91.6075V101.686Z" fill="#525A6D"/>
<path d="M60.3306 101.686L139.473 121.842V112.78L60.3306 91.6075V101.686Z" fill="#727894"/>
<path d="M60.3307 109.705L16.9208 122.652L0.424805 119.162L60.3307 101.686V109.705Z" fill="#30343F"/>
<path d="M60.3306 109.705L123.968 126.298L139.473 121.842L60.3306 101.686V109.705Z" fill="#3C434F"/>
<path d="M55.3919 99.6597L5.47852 114.414V112.236L55.3919 96.6748V99.6597Z" fill="#C8D3E0"/>
<path d="M65.3042 99.3404L134.743 117.352V115.172L65.3042 96.7584V99.3404Z" fill="#C8D3E0"/>
<path d="M60.3307 116.18L0.424805 133.656V124.591L60.3307 106.104V116.18Z" fill="#525A6D"/>
<path d="M60.3306 116.18L139.473 136.337V127.274L60.3306 106.104V116.18Z" fill="#727894"/>
<path d="M60.3307 124.2L16.9208 137.147L0.424805 133.656L60.3307 116.18V124.2Z" fill="#30343F"/>
<path d="M60.3306 124.2L123.968 140.792L139.473 136.337L60.3306 116.18V124.2Z" fill="#3C434F"/>
<path d="M55.3919 114.156L5.47852 128.909V126.731L55.3919 111.17V114.156Z" fill="#C8D3E0"/>
<path d="M65.3042 113.835L134.743 131.847V129.665L65.3042 111.254V113.835Z" fill="#C8D3E0"/>
<path d="M60.3307 130.674L0.424805 148.151V139.088L60.3307 120.599V130.674Z" fill="#525A6D"/>
<path d="M60.3306 130.674L139.473 150.832V141.769L60.3306 120.599V130.674Z" fill="#727894"/>
<path d="M60.3307 138.694L16.9208 151.642L0.424805 148.151L60.3307 130.674V138.694Z" fill="#30343F"/>
<path d="M60.3306 138.694L123.968 155.288L139.473 150.832L60.3306 130.674V138.694Z" fill="#3C434F"/>
<path d="M55.3919 128.651L5.47852 143.404V141.225L55.3919 125.666V128.651Z" fill="#C8D3E0"/>
<path d="M65.3042 128.33L134.743 146.343V144.161L65.3042 125.749V128.33Z" fill="#C8D3E0"/>
<path d="M60.3307 145.17L0.424805 162.647V153.582L60.3307 135.092V145.17Z" fill="#525A6D"/>
<path d="M60.3306 145.17L139.473 165.328V156.264L60.3306 135.092V145.17Z" fill="#727894"/>
<path d="M60.3307 153.19L16.9208 166.139L0.424805 162.647L60.3307 145.17V153.19Z" fill="#30343F"/>
<path d="M60.3306 153.19L123.968 169.783L139.473 165.328L60.3306 145.17V153.19Z" fill="#3C434F"/>
<path d="M55.3919 143.144L5.47852 157.9V155.722L55.3919 140.159V143.144Z" fill="#C8D3E0"/>
<path d="M65.3042 142.825L134.743 160.839V158.656L65.3042 140.243V142.825Z" fill="#C8D3E0"/>
<path d="M60.3307 159.665L0.424805 177.141V168.077L60.3307 149.589V159.665Z" fill="#525A6D"/>
<path d="M60.3306 159.665L139.473 179.822V170.759L60.3306 149.589V159.665Z" fill="#727894"/>
<path d="M60.3307 167.685L16.9208 180.632L0.424805 177.141L60.3307 159.665V167.685Z" fill="#30343F"/>
<path d="M60.3306 167.685L123.968 184.277L139.473 179.822L60.3306 159.665V167.685Z" fill="#3C434F"/>
<path d="M55.3919 157.64L5.47852 172.394V170.216L55.3919 154.656V157.64Z" fill="#C8D3E0"/>
<path d="M65.3042 157.32L134.743 175.332V173.15L65.3042 154.739V157.32Z" fill="#C8D3E0"/>
<path d="M60.3307 174.159L0.424805 191.637V182.572L60.3307 164.082V174.159Z" fill="#525A6D"/>
<path d="M60.3306 174.159L139.473 194.317V185.254L60.3306 164.082V174.159Z" fill="#727894"/>
<path d="M60.3307 182.179L16.9208 195.128L0.424805 191.637L60.3307 174.159V182.179Z" fill="#30343F"/>
<path d="M60.3306 182.179L123.968 198.773L139.473 194.317L60.3306 174.159V182.179Z" fill="#3C434F"/>
<path d="M55.3919 172.136L5.47852 186.889V184.711L55.3919 169.151V172.136Z" fill="#C8D3E0"/>
<path d="M65.3042 171.815L134.743 189.828V187.647L65.3042 169.234V171.815Z" fill="#C8D3E0"/>
<path d="M60.3307 188.655L0.424805 206.132V197.067L60.3307 178.578V188.655Z" fill="#525A6D"/>
<path d="M60.3306 188.655L139.473 208.813V199.75L60.3306 178.578V188.655Z" fill="#727894"/>
<path d="M60.3307 196.675L16.9208 209.622L0.424805 206.132L60.3307 188.655V196.675Z" fill="#30343F"/>
<path d="M60.3306 196.675L123.968 213.268L139.473 208.813L60.3306 188.655V196.675Z" fill="#3C434F"/>
<path d="M55.3919 186.63L5.47852 201.385V199.207L55.3919 183.645V186.63Z" fill="#C8D3E0"/>
<path d="M65.3042 186.31L134.743 204.323V202.141L65.3042 183.729V186.31Z" fill="#C8D3E0"/>
<path d="M60.3307 203.15L0.424805 220.627V211.563L60.3307 193.074V203.15Z" fill="#525A6D"/>
<path d="M60.3306 203.15L139.473 223.308V214.244L60.3306 193.074V203.15Z" fill="#727894"/>
<path d="M60.3307 211.171L16.9208 224.118L0.424805 220.627L60.3307 203.15V211.171Z" fill="#30343F"/>
<path d="M60.3306 211.171L123.968 227.762L139.473 223.308L60.3306 203.15V211.171Z" fill="#3C434F"/>
<path d="M55.3919 201.126L5.47852 215.88V213.7L55.3919 198.141V201.126Z" fill="#C8D3E0"/>
<path d="M65.3042 200.806L134.743 218.817V216.636L65.3042 198.225V200.806Z" fill="#C8D3E0"/>
<path d="M60.3307 217.645L0.424805 235.122V226.057L60.3307 207.569V217.645Z" fill="#525A6D"/>
<path d="M60.3306 217.645L139.473 237.802V228.74L60.3306 207.569V217.645Z" fill="#727894"/>
<path d="M60.3307 225.664L16.9208 238.612L0.424805 235.122L60.3307 217.645V225.664Z" fill="#30343F"/>
<path d="M60.3306 225.664L123.968 242.258L139.473 237.801L60.3306 217.645V225.664Z" fill="#3C434F"/>
<path d="M55.3919 215.62L5.47852 230.375V228.196L55.3919 212.635V215.62Z" fill="#C8D3E0"/>
<path d="M65.3042 215.3L134.743 233.312V231.131L65.3042 212.719V215.3Z" fill="#C8D3E0"/>
<path d="M60.3307 232.14L0.424805 249.616V240.553L60.3307 222.064V232.14Z" fill="#525A6D"/>
<path d="M60.3306 232.14L139.473 252.298V243.235L60.3306 222.064V232.14Z" fill="#727894"/>
<path d="M60.3307 240.16L16.9208 253.108L0.424805 249.616L60.3307 232.14V240.16Z" fill="#30343F"/>
<path d="M60.3306 240.16L123.968 256.753L139.473 252.298L60.3306 232.14V240.16Z" fill="#3C434F"/>
<path d="M55.3919 230.116L5.47852 244.87V242.692L55.3919 227.13V230.116Z" fill="#C8D3E0"/>
<path d="M65.3042 229.795L134.743 247.808V245.626L65.3042 227.214V229.795Z" fill="#C8D3E0"/>
<path d="M60.3307 246.635L0.424805 264.112V255.047L60.3307 236.559V246.635Z" fill="#525A6D"/>
<path d="M60.3306 246.635L139.473 266.793V257.729L60.3306 236.559V246.635Z" fill="#727894"/>
<path d="M60.3307 254.655L16.9208 267.603L0.424805 264.112L60.3307 246.634V254.655Z" fill="#30343F"/>
<path d="M60.3306 254.655L123.968 271.248L139.473 266.793L60.3306 246.634V254.655Z" fill="#3C434F"/>
<path d="M55.3919 244.611L5.47852 259.364V257.185L55.3919 241.626V244.611Z" fill="#C8D3E0"/>
<path d="M65.3042 244.29L134.743 262.304V260.122L65.3042 241.709V244.29Z" fill="#C8D3E0"/>
<path d="M60.3307 261.13L0.424805 278.607V269.542L60.3307 251.053V261.13Z" fill="#525A6D"/>
<path d="M60.3306 261.13L139.473 281.286V272.225L60.3306 251.053V261.13Z" fill="#727894"/>
<path d="M60.3307 269.149L16.9208 282.098L0.424805 278.607L60.3307 261.13V269.149Z" fill="#30343F"/>
<path d="M60.3306 269.149L123.968 285.743L139.473 281.286L60.3306 261.13V269.149Z" fill="#3C434F"/>
<path d="M55.3919 259.105L5.47852 273.86V271.682L55.3919 256.121V259.105Z" fill="#C8D3E0"/>
<path d="M65.3042 258.785L134.743 276.798V274.616L65.3042 256.204V258.785Z" fill="#C8D3E0"/>
<path d="M60.3307 275.625L0.424805 293.103V284.037L60.3307 265.549V275.625Z" fill="#525A6D"/>
<path d="M60.3306 275.625L139.473 295.783V286.72L60.3306 265.549V275.625Z" fill="#727894"/>
<path d="M60.3307 283.646L16.9208 296.594L0.424805 293.103L60.3307 275.625V283.646Z" fill="#30343F"/>
<path d="M60.3306 283.646L123.968 300.238L139.473 295.783L60.3306 275.625V283.646Z" fill="#3C434F"/>
<path d="M55.3919 273.601L5.47852 288.354V286.176L55.3919 270.616V273.601Z" fill="#C8D3E0"/>
<path d="M65.3042 273.28L134.743 291.293V289.111L65.3042 270.699V273.28Z" fill="#C8D3E0"/>
<path d="M60.3307 290.12L0.424805 307.597V298.532L60.3307 280.044V290.12Z" fill="#525A6D"/>
<path d="M60.3306 290.12L139.473 310.277V301.215L60.3306 280.044V290.12Z" fill="#727894"/>
<path d="M60.3307 298.14L16.9208 311.087L0.424805 307.597L60.3307 290.12V298.14Z" fill="#30343F"/>
<path d="M60.3306 298.14L123.968 314.733L139.473 310.277L60.3306 290.12V298.14Z" fill="#3C434F"/>
<path d="M55.3919 288.095L5.47852 302.851V300.671L55.3919 285.11V288.095Z" fill="#C8D3E0"/>
<path d="M65.3042 287.776L134.743 305.787V303.607L65.3042 285.194V287.776Z" fill="#C8D3E0"/>
<path d="M60.3307 304.615L0.424805 322.091V313.028L60.3307 294.539V304.615Z" fill="#525A6D"/>
<path d="M60.3306 304.615L139.473 324.773V315.709L60.3306 294.539V304.615Z" fill="#727894"/>
<path d="M60.3307 312.635L16.9208 325.583L0.424805 322.091L60.3307 304.615V312.635Z" fill="#30343F"/>
<path d="M60.3306 312.635L123.968 329.228L139.473 324.773L60.3306 304.615V312.635Z" fill="#3C434F"/>
<path d="M55.3919 302.592L5.47852 317.344V315.166L55.3919 299.606V302.592Z" fill="#C8D3E0"/>
<path d="M65.3042 302.271L134.743 320.283V318.101L65.3042 299.69V302.271Z" fill="#C8D3E0"/>
<path d="M60.3307 319.109L0.424805 336.588V327.523L60.3307 309.033V319.109Z" fill="#525A6D"/>
<path d="M60.3306 319.109L139.473 339.268V330.205L60.3306 309.033V319.109Z" fill="#727894"/>
<path d="M60.3307 327.13L16.9208 340.079L0.424805 336.588L60.3307 319.109V327.13Z" fill="#30343F"/>
<path d="M60.3306 327.13L123.968 343.724L139.473 339.268L60.3306 319.109V327.13Z" fill="#3C434F"/>
<path d="M55.3919 317.086L5.47852 331.84V329.661L55.3919 314.102V317.086Z" fill="#C8D3E0"/>
<path d="M65.3042 316.765L134.743 334.779V332.598L65.3042 314.185V316.765Z" fill="#C8D3E0"/>
<path d="M60.3307 333.606L0.424805 351.081V342.017L60.3307 323.529V333.606Z" fill="#525A6D"/>
<path d="M60.3306 333.606L139.473 353.763V344.7L60.3306 323.529V333.606Z" fill="#727894"/>
<path d="M60.3307 341.625L16.9208 354.572L0.424805 351.081L60.3307 333.606V341.625Z" fill="#30343F"/>
<path d="M60.3306 341.625L123.968 358.218L139.473 353.763L60.3306 333.606V341.625Z" fill="#3C434F"/>
<path d="M55.3919 331.58L5.47852 346.335V344.157L55.3919 328.596V331.58Z" fill="#C8D3E0"/>
<path d="M65.3042 331.261L134.743 349.273V347.091L65.3042 328.679V331.261Z" fill="#C8D3E0"/>
<path d="M60.3307 348.101L0.424805 365.578V356.512L60.3307 338.023V348.101Z" fill="#525A6D"/>
<path d="M60.3306 348.101L139.473 368.258V359.195L60.3306 338.023V348.101Z" fill="#727894"/>
<path d="M60.3307 356.12L16.9208 369.069L0.424805 365.578L60.3307 348.1V356.12Z" fill="#30343F"/>
<path d="M60.3306 356.12L123.968 372.712L139.473 368.258L60.3306 348.1V356.12Z" fill="#3C434F"/>
<path d="M55.3919 346.077L5.47852 360.829V358.651L55.3919 343.091V346.077Z" fill="#C8D3E0"/>
<path d="M65.3042 345.755L134.743 363.768V361.586L65.3042 343.175V345.755Z" fill="#C8D3E0"/>
<path d="M60.3307 362.595L0.424805 380.073V371.008L60.3307 352.519V362.595Z" fill="#525A6D"/>
<path d="M60.3306 362.595L139.473 382.752V373.691L60.3306 352.519V362.595Z" fill="#727894"/>
<path d="M60.3307 370.615L16.9208 383.563L0.424805 380.073L60.3307 362.595V370.615Z" fill="#30343F"/>
<path d="M60.3306 370.615L123.968 387.209L139.473 382.752L60.3306 362.595V370.615Z" fill="#3C434F"/>
<path d="M55.3919 360.57L5.47852 375.326V373.146L55.3919 357.585V360.57Z" fill="#C8D3E0"/>
<path d="M65.3042 360.25L134.743 378.263V376.082L65.3042 357.669V360.25Z" fill="#C8D3E0"/>
<path d="M60.3307 377.091L0.424805 394.567V385.502L60.3307 367.013V377.091Z" fill="#525A6D"/>
<path d="M60.3306 377.091L139.473 397.248V388.185L60.3306 367.013V377.091Z" fill="#727894"/>
<path d="M60.3307 385.111L16.9208 398.057L0.424805 394.567L60.3307 377.091V385.111Z" fill="#30343F"/>
<path d="M60.3306 385.111L123.968 401.704L139.473 397.248L60.3306 377.091V385.111Z" fill="#3C434F"/>
<path d="M55.3919 375.066L5.47852 389.82V387.642L55.3919 372.081V375.066Z" fill="#C8D3E0"/>
<path d="M65.3042 374.745L134.743 392.759V390.577L65.3042 372.165V374.745Z" fill="#C8D3E0"/>
<path d="M60.3307 391.585L0.424805 409.063V399.997L60.3307 381.51V391.585Z" fill="#525A6D"/>
<path d="M60.3306 391.585L139.473 411.743V402.68L60.3306 381.51V391.585Z" fill="#727894"/>
<path d="M60.3307 399.606L16.9208 412.553L0.424805 409.063L60.3307 391.585V399.606Z" fill="#30343F"/>
<path d="M60.3306 399.606L123.968 416.198L139.473 411.742L60.3306 391.585V399.606Z" fill="#3C434F"/>
<path d="M55.3919 389.561L5.47852 404.314V402.136L55.3919 386.576V389.561Z" fill="#C8D3E0"/>
<path d="M65.3042 389.24L134.743 407.253V405.071L65.3042 386.66V389.24Z" fill="#C8D3E0"/>
<path d="M60.3307 495.452L0.424805 495.454V416.461L60.3307 397.971V495.452Z" fill="#1F222B"/>
<path d="M60.3306 495.452H139.473V419.141L60.3306 397.971V495.452Z" fill="#2C2F3D"/>
<path d="M78.3589 484.881L125.102 484.879V429.179L78.3589 419.781V484.881Z" fill="#3E4359"/>
<path d="M46.9583 484.881L37.5825 484.879V422.982L46.9583 419.781V484.881Z" fill="#3A3E4C"/>
<path d="M25.7368 484.881L16.8545 484.879V429.123L25.7368 425.925V484.881Z" fill="#3A3E4C"/>
</svg>
