<svg width="341" height="370" viewBox="0 0 341 370" fill="none" xmlns="http://www.w3.org/2000/svg">
<path d="M93.1817 369.454H0.491211V47.2236L93.1817 7.67987V369.454Z" fill="#3E4359"/>
<path d="M209.159 369.454H340.044V93.1806L209.159 7.67987V369.454Z" fill="#FFB900"/>
<path d="M209.159 7.67973V369.454H93.1816V7.67973C93.1816 7.67973 112.744 -8.72419 209.159 7.67973Z" fill="#F39600"/>
<path d="M93.1817 76.1252L0.491211 108.301V369.454H93.1817V76.1252Z" fill="#3A3E4C"/>
<path d="M209.159 75.1822L340.044 141.065V369.454H209.159V75.1822Z" fill="#FF9F00"/>
<path d="M93.1816 76.1252L209.159 75.1822V369.454H93.1816V76.1252Z" fill="#E88000"/>
<path d="M93.1817 204.78L0.491211 221.678V369.454H93.1817V204.78Z" fill="#2C2F3D"/>
<path d="M209.159 203.233L340.044 242.519V369.454H209.159V203.233Z" fill="#E88000"/>
<path d="M93.8804 204.78L209.159 203.233V369.454H93.1816L93.8804 204.78Z" fill="#FF9F00"/>
<g style="mix-blend-mode:soft-light">
<path d="M209.159 17.4586L340.044 100.647" stroke="white" stroke-width="1.01207" stroke-miterlimit="10"/>
<path d="M209.159 27.2365L340.044 108.115" stroke="white" stroke-width="1.01207" stroke-miterlimit="10"/>
<path d="M209.159 37.0135L340.044 115.58" stroke="white" stroke-width="1.01207" stroke-miterlimit="10"/>
<path d="M209.159 46.7895L340.044 123.047" stroke="white" stroke-width="1.01207" stroke-miterlimit="10"/>
<path d="M209.159 56.5683L340.044 130.516" stroke="white" stroke-width="1.01207" stroke-miterlimit="10"/>
<path d="M209.159 66.3443L340.044 137.98" stroke="white" stroke-width="1.01207" stroke-miterlimit="10"/>
<path d="M209.159 76.1223L340.044 145.449" stroke="white" stroke-width="1.01207" stroke-miterlimit="10"/>
<path d="M209.159 85.9023L340.044 152.914" stroke="white" stroke-width="1.01207" stroke-miterlimit="10"/>
<path d="M209.159 95.6803L340.044 160.382" stroke="white" stroke-width="1.01207" stroke-miterlimit="10"/>
<path d="M209.159 105.457L340.044 167.849" stroke="white" stroke-width="1.01207" stroke-miterlimit="10"/>
<path d="M209.159 115.233L340.044 175.315" stroke="white" stroke-width="1.01207" stroke-miterlimit="10"/>
<path d="M209.159 125.012L340.044 182.782" stroke="white" stroke-width="1.01207" stroke-miterlimit="10"/>
<path d="M209.159 134.79L340.044 190.25" stroke="white" stroke-width="1.01207" stroke-miterlimit="10"/>
<path d="M209.159 144.567L340.044 197.717" stroke="white" stroke-width="1.01207" stroke-miterlimit="10"/>
<path d="M209.159 154.345L340.044 205.181" stroke="white" stroke-width="1.01207" stroke-miterlimit="10"/>
<path d="M209.159 164.123L340.044 212.649" stroke="white" stroke-width="1.01207" stroke-miterlimit="10"/>
<path d="M209.159 173.901L340.044 220.116" stroke="white" stroke-width="1.01207" stroke-miterlimit="10"/>
<path d="M209.159 183.678L340.044 227.583" stroke="white" stroke-width="1.01207" stroke-miterlimit="10"/>
<path d="M209.159 193.457L340.044 235.051" stroke="white" stroke-width="1.01207" stroke-miterlimit="10"/>
<path d="M209.159 203.233L340.044 242.519" stroke="white" stroke-width="1.01207" stroke-miterlimit="10"/>
<path d="M209.159 213.01L340.044 249.984" stroke="white" stroke-width="1.01207" stroke-miterlimit="10"/>
<path d="M209.159 222.788L340.044 257.451" stroke="white" stroke-width="1.01207" stroke-miterlimit="10"/>
<path d="M209.159 232.567L340.044 264.919" stroke="white" stroke-width="1.01207" stroke-miterlimit="10"/>
<path d="M209.159 242.344L340.044 272.382" stroke="white" stroke-width="1.01207" stroke-miterlimit="10"/>
<path d="M209.159 252.12L340.044 279.85" stroke="white" stroke-width="1.01207" stroke-miterlimit="10"/>
<path d="M209.159 261.898L340.044 287.318" stroke="white" stroke-width="1.01207" stroke-miterlimit="10"/>
<path d="M209.159 271.676L340.044 294.785" stroke="white" stroke-width="1.01207" stroke-miterlimit="10"/>
<path d="M209.159 281.453L340.044 302.252" stroke="white" stroke-width="1.01207" stroke-miterlimit="10"/>
<path d="M209.159 291.231L340.044 309.72" stroke="white" stroke-width="1.01207" stroke-miterlimit="10"/>
<path d="M209.159 301.01L340.044 317.186" stroke="white" stroke-width="1.01207" stroke-miterlimit="10"/>
<path d="M209.159 310.786L340.044 324.651" stroke="white" stroke-width="1.01207" stroke-miterlimit="10"/>
<path d="M209.159 320.564L340.044 332.117" stroke="white" stroke-width="1.01207" stroke-miterlimit="10"/>
<path d="M209.159 330.344L340.044 339.585" stroke="white" stroke-width="1.01207" stroke-miterlimit="10"/>
<path d="M209.159 340.121L340.044 347.052" stroke="white" stroke-width="1.01207" stroke-miterlimit="10"/>
<path d="M209.159 349.897L340.044 354.519" stroke="white" stroke-width="1.01207" stroke-miterlimit="10"/>
<path d="M209.159 359.675L340.044 361.987" stroke="white" stroke-width="1.01207" stroke-miterlimit="10"/>
<path d="M93.7901 17.4586L0.489502 56.5182" stroke="white" stroke-width="1.01207" stroke-miterlimit="10"/>
<path d="M93.7901 27.2365L0.489502 65.211" stroke="white" stroke-width="1.01207" stroke-miterlimit="10"/>
<path d="M93.7901 37.0135L0.489502 73.9029" stroke="white" stroke-width="1.01207" stroke-miterlimit="10"/>
<path d="M93.7901 46.7915L0.489502 82.5957" stroke="white" stroke-width="1.01207" stroke-miterlimit="10"/>
<path d="M93.7901 56.5704L0.489502 91.2885" stroke="white" stroke-width="1.01207" stroke-miterlimit="10"/>
<path d="M93.7901 66.7674L0.489502 99.7846" stroke="white" stroke-width="1.01207" stroke-miterlimit="10"/>
<path d="M93.7901 76.1252L0.489502 108.673" stroke="white" stroke-width="1.01207" stroke-miterlimit="10"/>
<path d="M93.7901 85.9023L0.489502 117.366" stroke="white" stroke-width="1.01207" stroke-miterlimit="10"/>
<path d="M93.7901 95.6803L0.489502 126.059" stroke="white" stroke-width="1.01207" stroke-miterlimit="10"/>
<path d="M93.7901 105.457L0.489502 134.751" stroke="white" stroke-width="1.01207" stroke-miterlimit="10"/>
<path d="M93.7901 115.233L0.489502 143.445" stroke="white" stroke-width="1.01207" stroke-miterlimit="10"/>
<path d="M93.7901 125.012L0.489502 152.138" stroke="white" stroke-width="1.01207" stroke-miterlimit="10"/>
<path d="M93.7901 134.79L0.489502 160.829" stroke="white" stroke-width="1.01207" stroke-miterlimit="10"/>
<path d="M93.7901 144.569L0.489502 169.522" stroke="white" stroke-width="1.01207" stroke-miterlimit="10"/>
<path d="M93.7901 154.347L0.489502 178.215" stroke="white" stroke-width="1.01207" stroke-miterlimit="10"/>
<path d="M93.7901 164.124L0.489502 186.908" stroke="white" stroke-width="1.01207" stroke-miterlimit="10"/>
<path d="M93.7901 173.903L0.489502 195.599" stroke="white" stroke-width="1.01207" stroke-miterlimit="10"/>
<path d="M93.7901 183.678L0.489502 204.29" stroke="white" stroke-width="1.01207" stroke-miterlimit="10"/>
<path d="M93.7901 193.457L0.489502 212.987" stroke="white" stroke-width="1.01207" stroke-miterlimit="10"/>
<path d="M93.7901 204.78L0.489502 221.678" stroke="white" stroke-width="1.01207" stroke-miterlimit="10"/>
<path d="M93.7901 213.01L0.489502 230.372" stroke="white" stroke-width="1.01207" stroke-miterlimit="10"/>
<path d="M93.7901 222.788L0.489502 239.064" stroke="white" stroke-width="1.01207" stroke-miterlimit="10"/>
<path d="M93.7901 232.567L0.489502 247.757" stroke="white" stroke-width="1.01207" stroke-miterlimit="10"/>
<path d="M93.7901 242.345L0.489502 256.448" stroke="white" stroke-width="1.01207" stroke-miterlimit="10"/>
<path d="M93.7901 252.123L0.489502 265.139" stroke="white" stroke-width="1.01207" stroke-miterlimit="10"/>
<path d="M93.7901 261.9L0.489502 273.836" stroke="white" stroke-width="1.01207" stroke-miterlimit="10"/>
<path d="M93.7901 271.676L0.489502 282.527" stroke="white" stroke-width="1.01207" stroke-miterlimit="10"/>
<path d="M93.7901 281.453L0.489502 291.221" stroke="white" stroke-width="1.01207" stroke-miterlimit="10"/>
<path d="M93.7901 291.231L0.489502 299.912" stroke="white" stroke-width="1.01207" stroke-miterlimit="10"/>
<path d="M93.7901 301.01L0.489502 308.605" stroke="white" stroke-width="1.01207" stroke-miterlimit="10"/>
<path d="M93.7901 310.786L0.489502 317.296" stroke="white" stroke-width="1.01207" stroke-miterlimit="10"/>
<path d="M93.7901 320.566L0.489502 325.987" stroke="white" stroke-width="1.01207" stroke-miterlimit="10"/>
<path d="M93.7901 330.344L0.489502 334.684" stroke="white" stroke-width="1.01207" stroke-miterlimit="10"/>
<path d="M93.7901 340.121L0.489502 343.375" stroke="white" stroke-width="1.01207" stroke-miterlimit="10"/>
<path d="M93.7901 349.899L0.489502 352.068" stroke="white" stroke-width="1.01207" stroke-miterlimit="10"/>
<path d="M93.7901 359.675L0.489502 360.759" stroke="white" stroke-width="1.01207" stroke-miterlimit="10"/>
</g>
<path d="M80.8385 41.8662L17.772 69.1246V56.5109L80.8385 29.2545V41.8662Z" fill="#FFD149"/>
<g style="mix-blend-mode:multiply" opacity="0.4">
<path d="M79.3447 369.454H17.5256V110.449L79.3447 88.5183V369.454Z" fill="#727894"/>
</g>
<path d="M293.468 188.691L323.275 196.313V101.364L293.468 86.5912V188.691Z" fill="#3E4359"/>
<path d="M293.468 344.514H323.275V240.025L293.468 234.04V344.514Z" fill="#2C2F3D"/>
<path d="M143.718 22.3883H126.25V191.918H143.718V22.3883Z" fill="#FFE99F"/>
<path d="M182.843 352.632L165.375 351.03V173.884L182.843 175.488V352.632Z" fill="#FFD149"/>
</svg>
