<svg width="187" height="131" viewBox="0 0 187 131" fill="none" xmlns="http://www.w3.org/2000/svg">
<g opacity="0.8">
<path d="M0.625136 0.989168L0 1.47893V4.43921L4.58155 0.849854C3.22539 0.855545 1.90289 0.900232 0.625136 0.989168Z" fill="#90D676"/>
<path d="M13.2777 1.27905L0 11.6813V14.6416L16.5882 1.64579C15.4802 1.507 14.3767 1.38476 13.2777 1.27905Z" fill="#90D676"/>
<path d="M24.2982 2.84766L0 21.8838V24.844L27.3216 3.43931C26.3226 3.23289 25.3148 3.03567 24.2982 2.84766Z" fill="#90D676"/>
<path d="M34.4518 5.09497L0 32.0858V35.0461L37.263 5.85289C36.3479 5.59588 35.4109 5.34324 34.4518 5.09497Z" fill="#90D676"/>
<path d="M43.8735 7.91602L0 42.2881V45.2485L46.447 8.86017C45.6411 8.54745 44.7804 8.23187 43.8735 7.91602Z" fill="#90D676"/>
<path d="M52.2355 11.5674L0 52.4905V55.4508L54.3929 12.8375C53.689 12.402 52.9698 11.9787 52.2355 11.5674Z" fill="#90D676"/>
<path d="M59.293 16.2402L0 62.6925V65.6528L61.149 17.7465C60.5436 17.2344 59.9249 16.7324 59.293 16.2402Z" fill="#90D676"/>
<path d="M65.3696 21.6821L0 72.8951V75.8553L66.9726 23.3865C66.4499 22.8102 65.9156 22.2421 65.3696 21.6821Z" fill="#90D676"/>
<path d="M70.6259 27.7664L0 83.0972V86.0575L72.02 29.6344C71.5652 29.0055 71.1005 28.3828 70.6259 27.7664Z" fill="#90D676"/>
<path d="M75.2144 34.3738L0 93.2995V96.2598L76.4422 36.3722C76.0406 35.7021 75.6313 35.036 75.2144 34.3738Z" fill="#90D676"/>
<path d="M79.2859 41.3865L0 103.502V106.462L80.3923 43.4799C80.0292 42.7805 79.6604 42.0826 79.2859 41.3865Z" fill="#90D676"/>
<path d="M82.9955 48.6826L0 113.704V116.665L84.0278 50.8341C83.6872 50.1177 83.3431 49.4006 82.9955 48.6826Z" fill="#90D676"/>
<path d="M86.5302 56.1155L0 123.906V126.867L87.5873 58.2476C87.2264 57.5365 86.8741 56.8258 86.5302 56.1155Z" fill="#90D676"/>
<path d="M90.359 63.3184L4.32373 130.721H8.10224L91.5934 65.3115C91.1689 64.6542 90.7574 63.9899 90.359 63.3184Z" fill="#90D676"/>
<path d="M94.9443 69.9282L17.3462 130.722H21.1248L96.4767 71.6881C95.9482 71.1157 95.4374 70.5291 94.9443 69.9282Z" fill="#90D676"/>
<path d="M100.721 75.605L30.3687 130.722H34.1472L102.693 77.0207C102.012 76.5708 101.355 76.0988 100.721 75.605Z" fill="#90D676"/>
<path d="M110.239 80.6507C109.552 80.4274 108.882 80.1847 108.232 79.9226L43.3911 130.721H47.1697L110.843 80.8371C110.642 80.776 110.44 80.7158 110.239 80.6507Z" fill="#90D676"/>
<path d="M118.221 82.2991L56.4136 130.722H60.1921L121.62 82.5967C120.479 82.5237 119.346 82.427 118.221 82.2991Z" fill="#90D676"/>
<path d="M130.497 82.8843L69.436 130.722H73.2145L134.153 82.9801C132.936 82.937 131.717 82.9089 130.497 82.8843Z" fill="#90D676"/>
<path d="M142.52 83.6672L82.4585 130.721H86.2371L145.604 84.2115C144.587 84.0021 143.559 83.8207 142.52 83.6672Z" fill="#90D676"/>
<path d="M152.453 86.0876L95.481 130.721H99.2595L155.014 87.0412C154.172 86.704 153.318 86.3862 152.453 86.0876Z" fill="#90D676"/>
<path d="M160.8 89.7505L108.503 130.722H112.282L162.988 90.9966C162.271 90.5665 161.542 90.1511 160.8 89.7505Z" fill="#90D676"/>
<path d="M167.948 94.3525L121.526 130.721H125.304L169.823 95.8435C169.212 95.335 168.587 94.838 167.948 94.3525Z" fill="#90D676"/>
<path d="M174.051 99.7734L134.549 130.721H138.327L175.632 101.495C175.122 100.912 174.595 100.338 174.051 99.7734Z" fill="#90D676"/>
<path d="M179.127 106L147.571 130.721H151.349L180.394 107.967C179.992 107.304 179.569 106.648 179.127 106Z" fill="#90D676"/>
<path d="M183.077 113.107L160.593 130.722H164.372L184 115.344C183.712 114.594 183.406 113.848 183.077 113.107Z" fill="#90D676"/>
<path d="M185.817 121.163L173.616 130.721H177.394L186.366 123.692C186.205 122.846 186.022 122.002 185.817 121.163Z" fill="#90D676"/>
</g>
</svg>
