<svg width="164" height="65" viewBox="0 0 164 65" fill="none" xmlns="http://www.w3.org/2000/svg">
<path d="M35.902 5.65592C35.9024 6.68324 35.6 7.68759 35.0332 8.54201C34.4663 9.39642 33.6604 10.0625 32.7173 10.456C31.7742 10.8496 30.7364 10.9529 29.735 10.753C28.7336 10.553 27.8136 10.0587 27.0913 9.33261C26.3691 8.60652 25.877 7.6812 25.6773 6.67372C25.4777 5.66623 25.5794 4.62179 25.9696 3.67246C26.3598 2.72314 27.021 1.91158 27.8696 1.34037C28.7182 0.769167 29.716 0.464009 30.737 0.463441C31.415 0.463041 32.0864 0.597013 32.7129 0.857759C33.3394 1.1185 33.9087 1.50092 34.3884 1.9831C34.868 2.46528 35.2486 3.03778 35.5083 3.66797C35.768 4.29816 35.9018 4.97369 35.902 5.65592Z" fill="#3E4359"/>
<path d="M61.4071 5.65592C61.4075 6.68324 61.1052 7.68759 60.5383 8.54201C59.9714 9.39642 59.1655 10.0625 58.2225 10.456C57.2794 10.8496 56.2415 10.9529 55.2401 10.753C54.2387 10.553 53.3187 10.0588 52.5965 9.33267C51.8742 8.60659 51.3821 7.68126 51.1825 6.67378C50.9828 5.6663 51.0845 4.62191 51.4747 3.67258C51.8649 2.72326 52.5261 1.91165 53.3746 1.34043C54.2232 0.769216 55.221 0.464028 56.242 0.463441C56.92 0.463115 57.5914 0.597172 58.2179 0.857943C58.8443 1.11871 59.4136 1.50105 59.8933 1.98322C60.3729 2.46539 60.7535 3.03794 61.0132 3.6681C61.2729 4.29825 61.4068 4.97371 61.4071 5.65592Z" fill="#3E4359"/>
<path d="M86.911 5.65592C86.9113 6.68314 86.6089 7.68736 86.042 8.54164C85.4751 9.39592 84.6692 10.0619 83.7262 10.4553C82.7832 10.8487 81.7454 10.9519 80.7441 10.7519C79.7428 10.5518 78.823 10.0575 78.1008 9.33144C77.3787 8.60536 76.8868 7.68014 76.6872 6.67273C76.4877 5.66533 76.5895 4.62098 76.9797 3.67178C77.37 2.72259 78.0312 1.91114 78.8797 1.34006C79.7283 0.768986 80.726 0.463929 81.7469 0.46344C82.4248 0.463135 83.0961 0.597214 83.7226 0.858004C84.349 1.11879 84.9182 1.50117 85.3978 1.98334C85.8773 2.46552 86.2577 3.03802 86.5174 3.66816C86.777 4.2983 86.9108 4.97376 86.911 5.65592Z" fill="#3E4359"/>
<path d="M10.3971 32.2401C10.3967 33.2672 10.0937 34.2712 9.52639 35.1251C8.95905 35.979 8.15286 36.6445 7.20973 37.0374C6.2666 37.4304 5.22886 37.5332 4.2277 37.3327C3.22654 37.1323 2.30691 36.6377 1.58504 35.9115C0.863182 35.1852 0.371498 34.2599 0.17215 33.2525C-0.0271974 32.2451 0.0747411 31.2009 0.465074 30.2518C0.855407 29.3027 1.51662 28.4914 2.36511 27.9203C3.21361 27.3493 4.21131 27.0442 5.23209 27.0436C5.91037 27.0434 6.58206 27.1776 7.20878 27.4386C7.8355 27.6997 8.40497 28.0824 8.88463 28.565C9.36429 29.0475 9.74476 29.6205 10.0043 30.2511C10.2638 30.8817 10.3973 31.5575 10.3971 32.2401Z" fill="#3E4359"/>
<path d="M35.902 32.2401C35.9016 33.2672 35.5986 34.2712 35.0313 35.1251C34.4639 35.979 33.6577 36.6445 32.7146 37.0374C31.7715 37.4304 30.7337 37.5332 29.7326 37.3327C28.7314 37.1323 27.8118 36.6377 27.0899 35.9115C26.3681 35.1852 25.8764 34.2599 25.677 33.2525C25.4777 32.2451 25.5796 31.2009 25.97 30.2518C26.3603 29.3027 27.0215 28.4914 27.87 27.9203C28.7185 27.3493 29.7162 27.0442 30.737 27.0436C31.4153 27.0433 32.087 27.1774 32.7138 27.4385C33.3405 27.6995 33.91 28.0822 34.3897 28.5648C34.8694 29.0474 35.2498 29.6204 35.5093 30.251C35.7688 30.8816 35.9022 31.5575 35.902 32.2401Z" fill="#3E4359"/>
<path d="M61.4071 32.2401C61.4067 33.2672 61.1037 34.2712 60.5364 35.1251C59.9691 35.979 59.1629 36.6445 58.2198 37.0374C57.2766 37.4304 56.2389 37.5331 55.2378 37.3327C54.2366 37.1323 53.3169 36.6378 52.5951 35.9115C51.8732 35.1853 51.3815 34.2599 51.1822 33.2526C50.9828 32.2452 51.0847 31.201 51.4751 30.2519C51.8654 29.3028 52.5266 28.4914 53.375 27.9204C54.2235 27.3493 55.2212 27.0442 56.242 27.0436C56.9203 27.0433 57.592 27.1775 58.2187 27.4386C58.8454 27.6996 59.4149 28.0824 59.8946 28.565C60.3743 29.0475 60.7547 29.6205 61.0143 30.2511C61.2738 30.8817 61.4073 31.5575 61.4071 32.2401Z" fill="#3E4359"/>
<path d="M86.911 32.2401C86.9105 33.2671 86.6074 34.271 86.0401 35.1247C85.4727 35.9785 84.6665 36.6439 83.7235 37.0367C82.7804 37.4295 81.7428 37.5321 80.7417 37.3316C79.7407 37.1311 78.8212 36.6365 78.0995 35.9103C77.3777 35.1841 76.8862 34.2588 76.6869 33.2515C76.4877 32.2442 76.5897 31.2001 76.9801 30.2511C77.3705 29.3022 78.0317 28.4909 78.8801 27.92C79.7286 27.3491 80.7262 27.0441 81.7469 27.0436C82.4251 27.0434 83.0968 27.1776 83.7234 27.4387C84.3501 27.6997 84.9195 28.0825 85.3991 28.5651C85.8787 29.0477 86.259 29.6206 86.5185 30.2512C86.7779 30.8818 86.9113 31.5576 86.911 32.2401Z" fill="#3E4359"/>
<path d="M112.417 32.2401C112.416 33.2672 112.113 34.2712 111.546 35.1251C110.979 35.979 110.173 36.6445 109.23 37.0374C108.286 37.4304 107.249 37.5331 106.248 37.3327C105.246 37.1323 104.327 36.6378 103.605 35.9115C102.883 35.1853 102.391 34.2599 102.192 33.2526C101.993 32.2452 102.094 31.201 102.485 30.2519C102.875 29.3028 103.536 28.4914 104.385 27.9204C105.233 27.3493 106.231 27.0442 107.252 27.0436C107.93 27.0432 108.602 27.1774 109.229 27.4384C109.855 27.6994 110.425 28.0821 110.905 28.5647C111.384 29.0473 111.765 29.6203 112.024 30.2509C112.284 30.8816 112.417 31.5575 112.417 32.2401Z" fill="#3E4359"/>
<path d="M61.4071 58.8253C61.4066 59.8524 61.1034 60.8562 60.536 61.71C59.9685 62.5638 59.1623 63.2291 58.2191 63.6219C57.276 64.0148 56.2383 64.1174 55.2372 63.9168C54.2361 63.7163 53.3165 63.2217 52.5948 62.4954C51.873 61.7692 51.3814 60.8438 51.1821 59.8365C50.9828 58.8291 51.0848 57.785 51.4751 56.8359C51.8655 55.8869 52.5267 55.0756 53.3751 54.5046C54.2236 53.9336 55.2212 53.6285 56.242 53.6279C56.9204 53.6275 57.5922 53.7616 58.2191 54.0226C58.846 54.2836 59.4155 54.6665 59.8953 55.1492C60.375 55.6319 60.7554 56.205 61.0148 56.8358C61.2743 57.4666 61.4076 58.1426 61.4071 58.8253Z" fill="#3E4359"/>
<path d="M86.911 58.8253C86.9103 59.8523 86.6071 60.856 86.0396 61.7096C85.4722 62.5633 84.6659 63.2285 83.7229 63.6211C82.7798 64.0138 81.7422 64.1164 80.7412 63.9158C79.7402 63.7152 78.8208 63.2205 78.0992 62.4942C77.3775 61.7679 76.8861 60.8427 76.6869 59.8354C76.4877 58.8282 76.5898 57.7841 76.9802 56.8352C77.3706 55.8863 78.0318 55.0751 78.8802 54.5042C79.7287 53.9334 80.7262 53.6284 81.7469 53.6279C82.4252 53.6275 83.097 53.7616 83.7238 54.0227C84.3506 54.2837 84.9201 54.6665 85.3997 55.1492C85.8794 55.632 86.2597 56.2051 86.519 56.8358C86.7784 57.4666 86.9115 58.1427 86.911 58.8253Z" fill="#3E4359"/>
<path d="M112.417 58.8253C112.416 59.8524 112.113 60.8562 111.546 61.71C110.978 62.5638 110.172 63.2291 109.229 63.6219C108.286 64.0148 107.248 64.1174 106.247 63.9168C105.246 63.7163 104.326 63.2217 103.605 62.4954C102.883 61.7692 102.391 60.8438 102.192 59.8365C101.993 58.8291 102.095 57.785 102.485 56.8359C102.875 55.8869 103.536 55.0756 104.385 54.5046C105.233 53.9336 106.231 53.6285 107.252 53.6279C107.93 53.6275 108.602 53.7616 109.229 54.0226C109.856 54.2836 110.425 54.6665 110.905 55.1492C111.385 55.6319 111.765 56.205 112.025 56.8358C112.284 57.4666 112.417 58.1426 112.417 58.8253Z" fill="#3E4359"/>
<path d="M137.921 32.2401C137.92 33.2673 137.617 34.2713 137.05 35.1252C136.483 35.9791 135.676 36.6446 134.733 37.0375C133.79 37.4304 132.752 37.5332 131.751 37.3327C130.75 37.1322 129.83 36.6375 129.108 35.9112C128.387 35.1848 127.895 34.2594 127.696 33.2519C127.496 32.2445 127.599 31.2003 127.989 30.2512C128.379 29.3021 129.041 28.4908 129.889 27.9199C130.738 27.349 131.736 27.044 132.757 27.0436C133.435 27.0433 134.107 27.1774 134.733 27.4385C135.36 27.6995 135.929 28.0822 136.409 28.5648C136.889 29.0474 137.269 29.6204 137.528 30.2511C137.788 30.8817 137.921 31.5575 137.921 32.2401Z" fill="#3E4359"/>
<path d="M163.425 32.2401C163.425 33.2671 163.122 34.271 162.555 35.1248C161.987 35.9786 161.181 36.6439 160.238 37.0367C159.295 37.4295 158.257 37.5322 157.256 37.3317C156.255 37.1312 155.336 36.6365 154.614 35.9103C153.892 35.184 153.401 34.2588 153.201 33.2515C153.002 32.2442 153.104 31.2001 153.495 30.2511C153.885 29.3022 154.546 28.4909 155.395 27.92C156.243 27.3491 157.241 27.0441 158.261 27.0436C158.94 27.0433 159.611 27.1774 160.238 27.4385C160.865 27.6995 161.434 28.0822 161.914 28.5648C162.393 29.0474 162.774 29.6204 163.033 30.2511C163.293 30.8817 163.426 31.5575 163.425 32.2401Z" fill="#3E4359"/>
<path d="M137.921 58.8253C137.92 59.8524 137.617 60.8563 137.05 61.7101C136.482 62.5639 135.676 63.2292 134.733 63.622C133.789 64.0148 132.752 64.1174 131.75 63.9168C130.749 63.7162 129.83 63.2214 129.108 62.4951C128.386 61.7687 127.895 60.8433 127.696 59.8359C127.496 58.8285 127.599 57.7843 127.989 56.8352C128.38 55.8862 129.041 55.075 129.89 54.5041C130.738 53.9332 131.736 53.6283 132.757 53.6279C133.435 53.6275 134.107 53.7616 134.734 54.0227C135.36 54.2837 135.93 54.6665 136.41 55.1492C136.889 55.632 137.27 56.2051 137.529 56.8358C137.788 57.4666 137.921 58.1427 137.921 58.8253Z" fill="#3E4359"/>
</svg>
