<svg width="784" height="406" viewBox="0 0 784 406" fill="none" xmlns="http://www.w3.org/2000/svg">
<path d="M507.933 179.193H462.884V224.524H507.933V179.193Z" stroke="#FF9F00" stroke-width="2" stroke-miterlimit="10"/>
<path d="M297.691 378.659H272.164V404.346H297.691V378.659Z" stroke="#727894" stroke-width="2" stroke-miterlimit="10"/>
<path d="M756.376 213.287C756.376 215.709 755.662 218.077 754.325 220.09C752.987 222.104 751.086 223.674 748.863 224.601C746.639 225.528 744.192 225.771 741.831 225.298C739.47 224.825 737.301 223.659 735.599 221.946C733.897 220.234 732.738 218.052 732.268 215.676C731.799 213.3 732.04 210.838 732.961 208.6C733.882 206.362 735.442 204.45 737.443 203.104C739.444 201.758 741.797 201.04 744.205 201.04C745.803 201.04 747.386 201.356 748.862 201.972C750.339 202.587 751.681 203.489 752.811 204.627C753.941 205.764 754.838 207.114 755.449 208.6C756.061 210.086 756.376 211.678 756.376 213.287Z" stroke="#FF9F00" stroke-width="2" stroke-miterlimit="10"/>
<path d="M21.0995 302.374C21.0994 304.311 20.5284 306.205 19.4585 307.817C18.3886 309.428 16.868 310.683 15.0889 311.425C13.3098 312.166 11.3523 312.36 9.46366 311.982C7.57505 311.604 5.84024 310.671 4.47862 309.301C3.11701 307.931 2.18975 306.185 1.81406 304.285C1.43837 302.384 1.63113 300.414 2.36798 298.624C3.10484 296.834 4.35272 295.304 5.95377 294.227C7.55482 293.151 9.43714 292.576 11.3628 292.576C12.6414 292.576 13.9076 292.829 15.089 293.322C16.2703 293.814 17.3437 294.536 18.2479 295.446C19.152 296.355 19.8692 297.436 20.3585 298.624C20.8478 299.813 21.0996 301.087 21.0995 302.374Z" stroke="#727894" stroke-width="2" stroke-miterlimit="10"/>
<path d="M656.203 5.52695C656.203 6.55423 655.901 7.55858 655.334 8.41298C654.767 9.26737 653.961 9.93344 653.018 10.327C652.075 10.7206 651.038 10.824 650.036 10.6241C649.035 10.4242 648.115 9.93 647.392 9.20401C646.67 8.47802 646.178 7.55282 645.978 6.54539C645.778 5.53797 645.88 4.49357 646.27 3.54423C646.66 2.59489 647.321 1.78324 648.17 1.21191C649.018 0.640586 650.016 0.335241 651.037 0.334474C651.715 0.334055 652.386 0.468034 653.013 0.728761C653.639 0.989487 654.209 1.37185 654.689 1.85402C655.168 2.3362 655.549 2.90874 655.809 3.53894C656.068 4.16915 656.202 4.84467 656.203 5.52695Z" fill="#FF9F00"/>
<path d="M681.707 5.52695C681.707 6.55431 681.405 7.55872 680.838 8.41316C680.271 9.2676 679.465 9.93369 678.522 10.3272C677.579 10.7207 676.541 10.824 675.539 10.6239C674.538 10.4239 673.618 9.92952 672.896 9.20333C672.173 8.47715 671.681 7.55177 671.482 6.54423C671.282 5.53668 671.384 4.49222 671.774 3.54291C672.165 2.5936 672.826 1.78209 673.675 1.21099C674.524 0.639893 675.522 0.334862 676.543 0.334473C677.912 0.334027 679.225 0.880814 680.193 1.85458C681.162 2.82834 681.706 4.14932 681.707 5.52695Z" fill="#FF9F00"/>
<path d="M707.211 5.52695C707.211 6.55403 706.908 7.55809 706.341 8.41221C705.775 9.26633 704.969 9.93213 704.026 10.3254C703.083 10.7188 702.045 10.8219 701.044 10.6219C700.043 10.4218 699.123 9.92759 698.401 9.20161C697.679 8.47563 697.187 7.55053 696.988 6.54327C696.788 5.53602 696.89 4.49184 697.28 3.54276C697.67 2.59367 698.331 1.7823 699.18 1.21124C700.028 0.640174 701.026 0.335061 702.046 0.334474C702.724 0.334083 703.396 0.468093 704.022 0.728853C704.649 0.989613 705.218 1.37202 705.698 1.85421C706.177 2.3364 706.558 2.90895 706.817 3.53913C707.077 4.16931 707.21 4.84477 707.211 5.52695Z" fill="#FF9F00"/>
<path d="M630.697 32.1111C630.697 33.1383 630.393 34.1423 629.826 34.9962C629.259 35.8501 628.453 36.5156 627.509 36.9085C626.566 37.3014 625.528 37.4041 624.527 37.2036C623.526 37.0032 622.606 36.5085 621.884 35.7822C621.163 35.0558 620.671 34.1304 620.472 33.123C620.273 32.1155 620.375 31.0713 620.765 30.1222C621.156 29.1731 621.817 28.3619 622.666 27.7909C623.514 27.22 624.512 26.9151 625.533 26.9147C626.211 26.9145 626.883 27.0487 627.509 27.3098C628.136 27.5709 628.705 27.9536 629.185 28.4362C629.664 28.9188 630.045 29.4917 630.304 30.1223C630.564 30.7528 630.697 31.4286 630.697 32.1111Z" fill="#FF9F00"/>
<path d="M656.203 32.1111C656.202 33.1382 655.899 34.1422 655.332 34.996C654.765 35.8499 653.959 36.5154 653.016 36.9084C652.073 37.3013 651.035 37.4041 650.034 37.2038C649.033 37.0035 648.113 36.509 647.391 35.7828C646.669 35.0567 646.177 34.1315 645.978 33.1242C645.778 32.1168 645.88 31.0727 646.27 30.1235C646.661 29.1744 647.322 28.363 648.17 27.7919C649.018 27.2207 650.016 26.9154 651.037 26.9147C651.715 26.9143 652.387 27.0484 653.014 27.3094C653.641 27.5704 654.21 27.9531 654.69 28.4357C655.17 28.9183 655.55 29.4913 655.81 30.1219C656.069 30.7526 656.203 31.4285 656.203 32.1111Z" fill="#FF9F00"/>
<path d="M681.707 32.1111C681.706 33.1383 681.403 34.1423 680.836 34.9962C680.268 35.8501 679.462 36.5156 678.519 36.9085C677.576 37.3014 676.538 37.4041 675.537 37.2036C674.536 37.0032 673.616 36.5085 672.894 35.7822C672.173 35.0558 671.681 34.1304 671.482 33.123C671.282 32.1155 671.384 31.0713 671.775 30.1222C672.165 29.1731 672.827 28.3619 673.675 27.7909C674.524 27.22 675.522 26.9151 676.543 26.9147C677.221 26.9145 677.892 27.0487 678.519 27.3098C679.146 27.5709 679.715 27.9537 680.195 28.4362C680.674 28.9188 681.055 29.4917 681.314 30.1223C681.574 30.7528 681.707 31.4286 681.707 32.1111Z" fill="#FF9F00"/>
<path d="M707.211 32.1111C707.21 33.138 706.907 34.1417 706.339 34.9953C705.772 35.8489 704.966 36.5141 704.023 36.9068C703.08 37.2995 702.043 37.4021 701.042 37.2016C700.041 37.0011 699.122 36.5066 698.4 35.7804C697.678 35.0543 697.187 34.1292 696.988 33.122C696.788 32.1149 696.89 31.0709 697.28 30.122C697.671 29.1732 698.332 28.3621 699.18 27.7912C700.028 27.2203 701.026 26.9153 702.046 26.9147C702.725 26.9143 703.396 27.0485 704.023 27.3095C704.65 27.5705 705.219 27.9533 705.699 28.4359C706.178 28.9185 706.559 29.4914 706.818 30.1221C707.078 30.7527 707.211 31.4286 707.211 32.1111Z" fill="#FF9F00"/>
<path d="M732.717 32.1111C732.716 33.1383 732.413 34.1423 731.846 34.9962C731.279 35.8501 730.472 36.5156 729.529 36.9085C728.586 37.3014 727.548 37.4041 726.547 37.2036C725.546 37.0032 724.626 36.5085 723.904 35.7822C723.183 35.0558 722.691 34.1304 722.492 33.123C722.292 32.1155 722.394 31.0713 722.785 30.1222C723.175 29.1731 723.837 28.3619 724.685 27.7909C725.534 27.22 726.532 26.9151 727.553 26.9147C728.231 26.9144 728.903 27.0486 729.529 27.3096C730.156 27.5706 730.725 27.9534 731.205 28.436C731.684 28.9186 732.065 29.4916 732.324 30.1222C732.584 30.7528 732.717 31.4286 732.717 32.1111Z" fill="#FF9F00"/>
<path d="M681.707 58.6962C681.706 59.7234 681.403 60.7273 680.835 61.5811C680.268 62.4349 679.462 63.1002 678.518 63.493C677.575 63.8858 676.538 63.9884 675.536 63.7878C674.535 63.5872 673.616 63.0924 672.894 62.366C672.172 61.6397 671.681 60.7143 671.482 59.7069C671.282 58.6995 671.384 57.6553 671.775 56.7062C672.165 55.7572 672.827 54.9459 673.675 54.3751C674.524 53.8042 675.522 53.4993 676.543 53.4989C677.221 53.4985 677.893 53.6327 678.519 53.8938C679.146 54.1549 679.716 54.5377 680.195 55.0204C680.675 55.5031 681.055 56.0762 681.315 56.7069C681.574 57.3377 681.707 58.0136 681.707 58.6962Z" fill="#FF9F00"/>
<path d="M707.211 58.6962C707.21 59.7231 706.907 60.7267 706.339 61.5802C705.772 62.4337 704.965 63.0987 704.022 63.4913C703.08 63.8839 702.042 63.9863 701.041 63.7857C700.04 63.5851 699.121 63.0905 698.4 62.3643C697.678 61.6382 697.187 60.713 696.987 59.7059C696.788 58.6988 696.89 57.6549 697.281 56.706C697.671 55.7572 698.332 54.9462 699.18 54.3753C700.029 53.8045 701.026 53.4995 702.046 53.4989C702.725 53.4984 703.397 53.6325 704.023 53.8935C704.65 54.1545 705.22 54.5373 705.699 55.02C706.179 55.5028 706.56 56.0759 706.819 56.7067C707.078 57.3375 707.211 58.0136 707.211 58.6962Z" fill="#FF9F00"/>
<path d="M732.717 58.6962C732.716 59.7234 732.413 60.7273 731.845 61.5811C731.278 62.4349 730.472 63.1002 729.528 63.493C728.585 63.8858 727.548 63.9884 726.546 63.7878C725.545 63.5872 724.626 63.0924 723.904 62.366C723.182 61.6397 722.691 60.7143 722.492 59.7069C722.292 58.6995 722.394 57.6553 722.785 56.7062C723.175 55.7572 723.837 54.9459 724.685 54.3751C725.534 53.8042 726.532 53.4993 727.553 53.4989C728.231 53.4985 728.903 53.6327 729.529 53.8938C730.156 54.1549 730.726 54.5377 731.205 55.0204C731.685 55.5031 732.065 56.0762 732.325 56.7069C732.584 57.3377 732.717 58.0136 732.717 58.6962Z" fill="#FF9F00"/>
<path d="M758.221 32.1111C758.22 33.1383 757.917 34.1423 757.35 34.9962C756.783 35.8501 755.976 36.5156 755.033 36.9085C754.09 37.3014 753.052 37.4041 752.051 37.2036C751.05 37.0032 750.13 36.5085 749.408 35.7822C748.686 35.0558 748.195 34.1304 747.996 33.123C747.796 32.1155 747.898 31.0713 748.289 30.1222C748.679 29.1731 749.341 28.3619 750.189 27.7909C751.038 27.22 752.036 26.9151 753.057 26.9147C753.735 26.9142 754.407 27.0483 755.033 27.3093C755.66 27.5702 756.23 27.953 756.709 28.4356C757.189 28.9182 757.569 29.4913 757.828 30.1219C758.088 30.7526 758.221 31.4286 758.221 32.1111Z" fill="#FF9F00"/>
<path d="M783.726 32.1111C783.726 33.1383 783.423 34.1423 782.855 34.9962C782.288 35.8501 781.482 36.5156 780.539 36.9085C779.595 37.3014 778.558 37.4041 777.556 37.2036C776.555 37.0032 775.636 36.5085 774.914 35.7822C774.192 35.0558 773.7 34.1304 773.501 33.123C773.302 32.1155 773.404 31.0713 773.794 30.1222C774.185 29.1731 774.846 28.3619 775.695 27.7909C776.543 27.22 777.541 26.9151 778.562 26.9147C779.24 26.9144 779.912 27.0486 780.539 27.3096C781.165 27.5706 781.735 27.9534 782.214 28.436C782.694 28.9186 783.074 29.4916 783.334 30.1222C783.593 30.7528 783.726 31.4286 783.726 32.1111Z" fill="#FF9F00"/>
<path d="M758.221 58.6962C758.22 59.7234 757.917 60.7273 757.349 61.5811C756.782 62.4349 755.976 63.1002 755.032 63.493C754.089 63.8858 753.051 63.9884 752.05 63.7878C751.049 63.5872 750.13 63.0924 749.408 62.366C748.686 61.6397 748.195 60.7143 747.995 59.7069C747.796 58.6995 747.898 57.6553 748.289 56.7062C748.679 55.7572 749.341 54.9459 750.189 54.3751C751.038 53.8042 752.036 53.4993 753.056 53.4989C753.735 53.4984 754.407 53.6325 755.033 53.8935C755.66 54.1545 756.23 54.5373 756.71 55.02C757.189 55.5028 757.569 56.0759 757.829 56.7067C758.088 57.3375 758.221 58.0136 758.221 58.6962Z" fill="#FF9F00"/>
</svg>
